<svg xmlns="http://www.w3.org/2000/svg" fill="none" viewBox="0 0 59.664 58.527272727272724" style="max-height: 500px" width="59.664" height="58.527272727272724">
<g clip-path="url(#clip0_171_450)">
<path fill="#204471" d="M69.5117 14.2505H76.2045C82.2812 14.2505 86.2422 18.412 86.2422 23.8346C86.2422 29.2869 82.2785 33.3916 76.2045 33.3916H69.5117V14.2505ZM76.2045 31.269C80.9609 31.269 83.7175 27.9393 83.7175 23.8373C83.7175 19.7055 81.0465 16.3758 76.2045 16.3758H71.948V31.269H76.2045Z"/>
<path fill="#204471" d="M96.3978 25.787H92.4948V33.3916H90.0586V14.2505H97.9252C101.505 14.2505 104.06 16.4892 104.06 20.0188C104.06 23.4619 101.654 25.3576 98.9832 25.5872L104.267 33.3916H101.392L96.3978 25.787ZM97.6297 16.3758H92.4921V23.6941H97.6297C99.9499 23.6941 101.533 22.1738 101.533 20.0215C101.533 17.8665 99.9499 16.3758 97.6297 16.3758Z"/>
<path fill="#204471" d="M120.231 29.1461H110.312L108.58 33.394H105.879L113.746 14.2529H116.77L124.667 33.394H121.966L120.231 29.1461ZM111.017 27.0208H119.499L115.273 16.3755L111.017 27.0208Z"/>
<path fill="#204471" d="M127.215 14.2505H135.082C139.015 14.2505 141.216 16.8916 141.216 20.0188C141.216 23.1459 138.957 25.787 135.082 25.787H129.651V33.3916H127.215V14.2505ZM134.789 16.3758H129.651V23.6644H134.789C137.109 23.6644 138.692 22.1711 138.692 20.0188C138.692 17.8665 137.109 16.3758 134.789 16.3758Z"/>
<path fill="#204471" d="M144.445 14.2505H157.273V16.3731H146.882V22.5437H157.066V24.6663H146.882V31.2663H157.273V33.3889H144.445V14.2505Z"/>
<path fill="#204471" d="M167.488 25.787H163.585V33.3916H161.148V14.2505H169.015C172.595 14.2505 175.15 16.4892 175.15 20.0188C175.15 23.4619 172.744 25.3576 170.073 25.5872L175.357 33.3916H172.482L167.488 25.787ZM168.72 16.3758H163.582V23.6941H168.72C171.04 23.6941 172.622 22.1738 172.622 20.0215C172.625 17.8665 171.04 16.3758 168.72 16.3758Z"/>
<path fill="#204471" d="M69.8846 42.2894C70.3183 42.7836 71.0282 43.248 71.9894 43.248C73.376 43.248 73.771 42.4973 73.771 41.9329C73.771 41.0039 72.8595 40.7447 71.9203 40.4989C70.8569 40.2127 69.7244 39.9156 69.7244 38.6977C69.7244 37.6202 70.716 36.937 71.9397 36.937C72.9423 36.937 73.6992 37.2827 74.2267 37.866L73.8428 38.2818C73.3567 37.7093 72.6689 37.4501 71.9093 37.4501C71.0088 37.4501 70.3321 37.9551 70.3321 38.668C70.3321 39.4485 71.1718 39.678 72.0916 39.9237C73.1744 40.2208 74.3787 40.5557 74.3787 41.9032C74.3787 42.743 73.8014 43.7638 71.9811 43.7638C70.8679 43.7638 70.0282 43.3291 69.5117 42.716L69.8846 42.2894Z"/>
<path fill="#204471" d="M79.8828 37.5612H77.6758V37.0454H82.6753V37.5612H80.4683V43.6454H79.8828V37.5612Z"/>
<path fill="#204471" d="M89.8346 42.0224H86.241L85.5643 43.6454H84.918L87.6801 37.0454H88.3983L91.1605 43.6454H90.5141L89.8346 42.0224ZM86.4261 41.5066H89.6551L88.0365 37.599L86.4261 41.5066Z"/>
<path fill="#204471" d="M96.6442 40.9123H95.1554V43.6425H94.5781V37.0425H97.0972C98.2601 37.0425 99.1523 37.7636 99.1523 38.9707C99.1523 40.167 98.2822 40.8313 97.2795 40.8691L99.2324 43.6398H98.5335L96.6442 40.9123ZM97.0503 37.561H95.1582V40.3992H97.0503C97.9397 40.3992 98.5474 39.8051 98.5474 38.9734C98.5474 38.1443 97.9397 37.561 97.0503 37.561Z"/>
<path fill="#204471" d="M104.641 37.5612H102.434V37.0454H107.433V37.5612H105.226V43.6454H104.641V37.5612Z"/>
<path fill="#204471" d="M111.059 37.0454H111.644V41.1016C111.644 42.4383 112.362 43.2485 113.688 43.2485C115.014 43.2485 115.732 42.4383 115.732 41.1016V37.0454H116.318V41.1124C116.318 42.7435 115.428 43.7642 113.688 43.7642C111.959 43.7642 111.059 42.7354 111.059 41.1124V37.0454Z"/>
<path fill="#204471" d="M120.43 37.0454H122.96C124.255 37.0454 124.993 37.9366 124.993 38.9736C124.993 40.0133 124.244 40.9017 122.96 40.9017H121.007V43.6427H120.43V37.0454ZM122.899 37.5612H121.007V40.3913H122.899C123.788 40.3913 124.388 39.808 124.388 38.9763C124.385 38.1445 123.788 37.5612 122.899 37.5612Z"/>
<path fill="#204471" d="M138.542 40.5073H134.261V43.6425H133.684V37.0425H134.261V39.9915H138.542V37.0425H139.128V43.6425H138.542V40.5073Z"/>
<path fill="#204471" d="M146.259 36.937C148.231 36.937 149.538 38.4223 149.538 40.3504C149.538 42.2786 148.231 43.7638 146.259 43.7638C144.276 43.7638 142.98 42.2786 142.98 40.3504C142.98 38.4223 144.276 36.937 146.259 36.937ZM146.259 37.4501C144.621 37.4501 143.588 38.6761 143.588 40.3477C143.588 42.0112 144.621 43.2453 146.259 43.2453C147.878 43.2453 148.93 42.0085 148.93 40.3477C148.93 38.6788 147.878 37.4501 146.259 37.4501Z"/>
<path fill="#204471" d="M153.395 37.0454H153.98V41.1016C153.98 42.4383 154.698 43.2485 156.024 43.2485C157.35 43.2485 158.068 42.4383 158.068 41.1016V37.0454H158.654V41.1124C158.654 42.7435 157.764 43.7642 156.024 43.7642C154.295 43.7642 153.395 42.7354 153.395 41.1124V37.0454Z"/>
<path fill="#204471" d="M162.767 42.2894C163.201 42.7836 163.911 43.248 164.872 43.248C166.259 43.248 166.654 42.4973 166.654 41.9329C166.654 41.0039 165.742 40.7447 164.803 40.4989C163.74 40.2127 162.607 39.9156 162.607 38.6977C162.607 37.6202 163.599 36.937 164.822 36.937C165.825 36.937 166.582 37.2827 167.11 37.866L166.726 38.2818C166.239 37.7093 165.552 37.4501 164.792 37.4501C163.892 37.4501 163.215 37.9551 163.215 38.668C163.215 39.4485 164.055 39.678 164.974 39.9237C166.057 40.2208 167.261 40.5557 167.261 41.9032C167.261 42.743 166.684 43.7638 164.864 43.7638C163.751 43.7638 162.911 43.3291 162.395 42.716L162.767 42.2894Z"/>
<path fill="#204471" d="M171.074 37.0454H175.356V37.5612H171.652V40.0052H175.284V40.521H171.652V43.1323H175.356V43.6481H171.074V37.0454Z"/>
<path fill="white" d="M29.5195 57.3474C45.5358 57.3474 58.5195 44.6536 58.5195 28.995C58.5195 13.3364 45.5358 0.642578 29.5195 0.642578C13.5033 0.642578 0.519531 13.3364 0.519531 28.995C0.519531 44.6536 13.5033 57.3474 29.5195 57.3474Z"/>
<path fill="#204471" d="M17.8682 43.7722C17.6224 43.7722 17.4236 43.702 17.2661 43.5588C17.1087 43.4184 17.0312 43.2483 17.0312 43.0484V18.5469C17.0312 18.3498 17.1087 18.1797 17.2661 18.0365C17.4236 17.8961 17.6251 17.8232 17.8682 17.8232H26.9336C29.345 17.8232 31.483 18.3606 33.353 19.4354C35.2202 20.5102 36.6454 21.9117 37.6232 23.64C38.427 25.1982 38.8275 26.9373 38.8275 28.8628C38.8275 30.0807 38.6618 31.2554 38.3303 32.3869C37.9989 33.5184 37.4823 34.5608 36.7836 35.5087C36.0848 36.4565 35.1925 37.291 34.1125 38.0147C33.0297 38.7358 31.737 39.2948 30.2344 39.6917C29.6046 39.6917 29.24 39.5351 29.1351 39.2246C29.0633 39.0274 29.0826 38.8411 29.1876 38.6737C29.2925 38.5035 29.4665 38.3901 29.7125 38.3334C30.2704 38.193 30.9693 37.9445 31.809 37.5908C32.6459 37.237 33.4606 36.6996 34.2451 35.9786C35.0323 35.2575 35.7036 34.3232 36.2616 33.1755C36.8195 32.0277 37.0984 30.5938 37.0984 28.8655C37.0984 27.3937 36.8278 26.0138 36.2864 24.7256C35.7449 23.4375 34.792 22.2844 33.4302 21.2636C32.5215 20.6128 31.4995 20.1105 30.3643 19.7567C29.229 19.403 28.0855 19.2247 26.9336 19.2247H18.7605V43.0457C18.7605 43.2429 18.672 43.413 18.498 43.5561C18.3239 43.702 18.114 43.7722 17.8682 43.7722ZM22.4285 15.6196C22.1827 15.6196 21.9755 15.5548 21.7988 15.4279C21.6247 15.3009 21.5364 15.1389 21.5364 14.9391C21.5364 14.7419 21.622 14.5718 21.7988 14.4287C21.9728 14.2882 22.1827 14.2153 22.4285 14.2153H28.0882C29.5908 14.2153 31.0383 14.4125 32.436 14.8094C33.8336 15.2064 35.1262 15.7438 36.3139 16.4216C37.5017 17.1022 38.5679 17.915 39.5098 18.8629C40.4517 19.8107 41.203 20.8369 41.7637 21.9414C42.8824 24.064 43.4403 26.4701 43.4403 29.1598C43.4403 31.142 43.1256 33.0161 42.4985 34.7849C41.8688 36.5538 40.9185 38.0957 39.6424 39.4136C38.3662 40.7287 36.7697 41.7765 34.8472 42.5569C32.9248 43.3347 30.6736 43.7236 28.0882 43.7236H22.4811C22.2353 43.7236 22.0253 43.6588 21.8512 43.5318C21.6772 43.4049 21.5889 43.2429 21.5889 43.043V21.7686C21.5889 21.5418 21.6745 21.3662 21.8512 21.2366C22.0253 21.1097 22.2353 21.0449 22.4811 21.0449C23.0391 21.0449 23.3179 21.2852 23.3179 21.7659V42.3166H28.0856C30.8449 42.3166 33.317 41.7576 35.4991 40.6396C37.6812 39.5216 39.2806 37.9148 40.2943 35.8192C41.2362 33.9505 41.7085 31.728 41.7085 29.1517C41.7085 27.1129 41.3329 25.155 40.5816 23.2701C39.8302 21.3878 38.4934 19.754 36.5737 18.366C35.1401 17.3479 33.6485 16.6323 32.0934 16.2218C30.5383 15.8113 29.2015 15.6061 28.0856 15.6061H22.4285V15.6196Z"/>
</g>
<defs>
<clipPath id="clip0_171_450">
<rect fill="white" height="58" width="176"/>
</clipPath>
</defs>
</svg>