<svg width="120" height="120" viewBox="0 0 120 120" fill="none" xmlns="http://www.w3.org/2000/svg">
<circle cx="60" cy="60" r="60" fill="#FF9500"/>
<mask id="mask0_138_50" style="mask-type:alpha" maskUnits="userSpaceOnUse" x="0" y="0" width="120" height="120">
<circle cx="60" cy="60" r="60" fill="#D9D9D9"/>
</mask>
<g mask="url(#mask0_138_50)">
<path d="M106.316 74.7376V100.009H13.2632V74.7376H6.10526L21.2632 66.459V62.5376H31.3684L41.0526 56.4376V49.9019H50.7368L60.4211 43.8019L70.1053 49.9019H79.7895V56.4376L89.0526 62.5376H98.3158V66.459L113.474 74.7376H106.316Z" fill="#FFCA80"/>
<path d="M60 66.5C66.3513 66.5 71.5 71.6487 71.5 78V99.5H48.5V78C48.5 71.6487 53.6487 66.5 60 66.5Z" fill="#FF9500" stroke="#FFCA80"/>
<path d="M20.1212 84.9971C20.1212 80.7796 23.5401 77.3607 27.7576 77.3607V77.3607C31.975 77.3607 35.3939 80.7796 35.3939 84.9971V93.1789C35.3939 94.2835 34.4985 95.1789 33.3939 95.1789H22.1212C21.0166 95.1789 20.1212 94.2835 20.1212 93.1789V84.9971Z" fill="#FF9500"/>
<path d="M83.7576 84.9971C83.7576 80.7796 87.1765 77.3607 91.3939 77.3607V77.3607C95.6114 77.3607 99.0303 80.7796 99.0303 84.9971V93.1789C99.0303 94.2835 98.1349 95.1789 97.0303 95.1789H85.7576C84.653 95.1789 83.7576 94.2835 83.7576 93.1789V84.9971Z" fill="#FF9500"/>
<path d="M60.4242 51.0577L69.6094 58.694H51.2391L60.4242 51.0577Z" fill="#FF9500"/>
<rect x="13" y="99" width="95" height="57" fill="#FFCA80"/>
</g>
<path d="M42 28.2892C44.7716 30.5069 49.8635 32.5012 54.0209 32.5012C57.4531 32.5012 59.4512 31.6556 61.401 30.5866C54.5848 25.1461 49.4284 19.3705 45.3517 13.5152C49.6057 17.2805 54.182 20.7107 59.0806 23.79C55.4389 19.7853 52.1517 15.9722 49.3801 11.7442C52.8284 15.3819 61.4815 22.5136 65.9934 25.0982C66.4123 24.0931 66.9119 22.0669 66.9119 20.2002C66.9119 15.0947 64.5915 11.4251 62.8673 9C71.182 13.9459 73.6957 21.6361 73.6957 26.0396C73.6957 27.0288 73.6313 28.6721 73.0995 30.1718C75.5488 33.2192 76 35.9953 76 37.4471C76 37.9737 75.9194 38.3885 75.8389 38.7235C75.71 39.1543 75.5005 39.0107 75.3877 38.7714C74.9526 38.0534 73.8408 36.1867 71.0531 36.1867C67.7175 36.1867 66.1223 38.8512 60.3536 38.8512C51.2976 38.8512 44.5782 32.4533 42 28.2892Z" fill="white"/>
</svg>
