<svg width="436" height="112" viewBox="0 0 436 112" fill="none" xmlns="http://www.w3.org/2000/svg">
<rect x="40.6709" width="81.3418" height="81.3418" rx="18" transform="rotate(30 40.6709 0)" fill="url(#paint0_linear_166_1369)"/>
<path d="M26.2551 50.1552C27.0239 48.8235 28.0788 47.5571 29.7118 46.3243L47.622 32.6832C50.4523 30.5412 53.7335 30.3351 56.7775 32.0925C60.6245 34.3136 61.6681 38.242 59.4916 42.0118C59.0572 42.7641 59.4657 43.7229 60.273 44.0438C60.843 44.2704 61.399 44.5384 61.937 44.8491C62.5192 45.1852 63.0624 45.5407 63.5622 45.9167C64.2188 46.4107 65.1953 46.2785 65.6061 45.567C67.7825 41.7972 71.7173 40.718 75.5643 42.9391C78.6082 44.6965 80.0595 47.66 79.6196 51.1821L76.7612 73.5133C76.5101 75.5439 75.9516 77.072 75.172 78.4223C72.0426 83.8426 64.923 85.1335 58.9844 81.7049C53.0645 78.2871 50.6414 71.4866 53.7708 66.0664L54.4913 64.8183C55.5601 62.9671 55.3097 60.6031 53.4585 59.5343C51.6007 58.4617 49.3891 59.5099 48.3165 61.3676L47.6563 62.5112C44.5269 67.9314 37.4338 69.2627 31.4953 65.834C25.5567 62.4054 23.1257 55.5754 26.2551 50.1552ZM54.6343 50.4248C54.0502 51.4366 54.6297 52.7402 55.6951 53.2197C56.0626 53.385 56.4269 53.5711 56.7828 53.7765C57.1566 53.9923 57.5058 54.2086 57.8305 54.4277C58.7895 55.0749 60.2127 54.9085 60.7912 53.9065C61.1781 53.2365 61.0698 52.381 60.4624 51.9017C59.8963 51.455 59.2702 51.0365 58.5911 50.6444C57.9263 50.2606 57.2265 49.9374 56.5136 49.6811C55.7945 49.4225 55.0164 49.763 54.6343 50.4248ZM30.2515 52.4625C28.3132 55.8196 29.871 59.7199 33.7367 61.9517C37.6024 64.1836 41.8337 63.6257 43.7719 60.2685C45.6994 56.9301 44.0482 52.976 40.2012 50.7549C36.3355 48.5231 32.1789 49.1241 30.2515 52.4625ZM57.6551 68.309C55.7168 71.6661 57.368 75.6203 61.215 77.8413C65.0807 80.0732 69.2481 79.4534 71.1756 76.115C73.103 72.7766 71.556 68.8576 67.6903 66.6258C63.8433 64.4047 59.5825 64.9706 57.6551 68.309Z" fill="white"/>
<rect x="119.115" y="22.3689" width="81.3418" height="81.3418" rx="18" transform="rotate(-10 119.115 22.3689)" fill="url(#paint1_linear_166_1369)"/>
<path d="M175.352 67.7143L149.875 84.1368C149.046 84.6558 148.225 84.9042 147.41 84.8821C146.612 84.871 145.905 84.6435 145.291 84.1994C144.677 83.7554 144.226 83.1445 143.938 82.3668C143.652 81.6025 143.631 80.7432 143.875 79.7889L151.228 50.6757C151.551 49.3899 152.16 48.4816 153.055 47.9509C153.964 47.4178 155.048 47.1784 156.308 47.2324C157.565 47.2731 158.901 47.5277 160.316 47.9962C161.742 48.449 163.144 49.0372 164.521 49.7609C165.91 50.4688 167.169 51.2203 168.298 52.0154C169.412 52.7994 170.538 53.7331 171.677 54.8165C172.815 55.8998 173.835 57.0457 174.735 58.254C175.646 59.4466 176.336 60.6366 176.806 61.8241C177.277 63.0115 177.424 64.1178 177.247 65.1431C177.069 66.155 176.437 67.0121 175.352 67.7143ZM162.211 60.7315C164.127 62.0921 165.881 63.1222 167.475 63.8216C169.081 64.5188 170.422 64.9175 171.497 65.0179C172.573 65.1182 173.276 64.939 173.607 64.4801C173.925 64.0236 173.853 63.3045 173.392 62.3226C172.93 61.3408 172.092 60.2113 170.878 58.9341C169.677 57.6546 168.121 56.3479 166.21 55.014C164.299 53.6802 162.539 52.658 160.93 51.9475C159.335 51.2347 157.999 50.8281 156.924 50.7277C155.86 50.6116 155.17 50.7885 154.854 51.2584C154.525 51.7306 154.592 52.4576 155.053 53.4395C155.515 54.4213 156.346 55.552 157.547 56.8315C158.761 58.1087 160.316 59.4087 162.211 60.7315ZM155.231 36.2169C154.511 36.3438 153.869 36.2085 153.305 35.8109C152.738 35.4 152.392 34.8396 152.267 34.1299C152.144 33.4335 152.28 32.802 152.674 32.2353C153.066 31.6552 153.622 31.3018 154.342 31.1749C155.034 31.0528 155.664 31.1972 156.231 31.6081C156.809 32.0033 157.16 32.5491 157.282 33.2454C157.407 33.9552 157.267 34.6013 156.862 35.1837C156.467 35.7504 155.923 36.0948 155.231 36.2169ZM158.944 39.1661C159.811 41.5125 160.457 43.8909 160.883 46.3015C161.308 48.712 161.51 51.1826 161.489 53.7131C161.476 54.1849 161.345 54.6085 161.095 54.9839C160.843 55.346 160.497 55.5658 160.057 55.6433C159.589 55.7121 159.137 55.6053 158.703 55.3229C158.268 55.0405 158.068 54.6476 158.103 54.1444C158.123 51.6831 157.923 49.2673 157.505 46.897C157.085 44.5132 156.448 42.1883 155.596 39.9223C155.402 39.4455 155.454 39.0014 155.752 38.5898C156.064 38.1758 156.458 37.9199 156.935 37.8219C157.402 37.7397 157.811 37.8401 158.163 38.1232C158.513 38.393 158.773 38.7406 158.944 39.1661ZM168.385 37.3151C167.639 37.4466 166.921 37.3868 166.231 37.1357C165.552 36.8687 164.971 36.4602 164.49 35.9099C164.021 35.3573 163.72 34.6993 163.585 33.936C163.382 32.7843 163.605 31.7508 164.254 30.8355C164.914 29.9044 165.811 29.339 166.943 29.1394C168.075 28.9397 169.104 29.1656 170.03 29.8172C170.953 30.4553 171.516 31.3502 171.719 32.5019C171.853 33.2652 171.795 33.9866 171.544 34.6661C171.293 35.3455 170.894 35.9268 170.347 36.4098C169.798 36.8794 169.144 37.1812 168.385 37.3151ZM165.755 44.4895C165.183 44.5905 164.654 44.4765 164.17 44.1476C163.684 43.8053 163.389 43.3395 163.285 42.7503C163.184 42.1744 163.304 41.6492 163.646 41.1746C163.986 40.6866 164.442 40.3922 165.015 40.2912C165.601 40.1878 166.131 40.3085 166.604 40.6531C167.077 40.9978 167.363 41.4514 167.462 42.0138C167.566 42.6031 167.454 43.1405 167.128 43.6261C166.799 44.0983 166.342 44.3861 165.755 44.4895ZM184.604 31.8454C184.018 31.9487 183.483 31.8359 182.999 31.507C182.526 31.1623 182.238 30.6954 182.134 30.1061C182.033 29.5303 182.146 29.0062 182.475 28.534C182.815 28.046 183.278 27.7504 183.864 27.647C184.424 27.5484 184.94 27.6714 185.413 28.016C185.883 28.3473 186.169 28.8009 186.271 29.3767C186.375 29.966 186.263 30.5034 185.937 30.989C185.608 31.4613 185.164 31.7467 184.604 31.8454ZM178.599 33.8984C178.876 33.5182 179.247 33.2871 179.713 33.2048C180.193 33.1203 180.634 33.2082 181.037 33.4685C181.43 33.7446 181.668 34.1237 181.753 34.6058C181.838 35.0879 181.744 35.5257 181.47 35.9192L178.412 40.3109C178.14 40.7178 177.764 40.9636 177.285 41.0481C176.803 41.1193 176.366 41.0169 175.974 40.7408C175.595 40.4624 175.357 40.09 175.261 39.6236C175.176 39.1415 175.27 38.697 175.541 38.2901L178.599 33.8984ZM172.357 43.0148C172.609 42.6528 172.973 42.4228 173.451 42.3248C173.928 42.2269 174.364 42.3226 174.758 42.6121C175.15 42.8882 175.382 43.2684 175.454 43.7529C175.523 44.2239 175.433 44.6472 175.183 45.0226L166.703 57.2262C166.429 57.6197 166.052 57.8587 165.573 57.9433C165.093 58.0279 164.657 57.9321 164.265 57.656C163.873 57.38 163.634 57.0009 163.549 56.5188C163.464 56.0367 163.559 55.5989 163.833 55.2053L172.357 43.0148ZM189.805 50.0044C189.099 50.1289 188.457 49.9936 187.879 49.5984C187.312 49.1875 186.965 48.6204 186.837 47.8972C186.714 47.2009 186.85 46.5693 187.245 46.0027C187.637 45.4226 188.193 45.0692 188.912 44.9423C189.618 44.8178 190.255 44.961 190.822 45.372C191.4 45.7671 191.75 46.3129 191.873 47.0093C192 47.7325 191.861 48.3853 191.456 48.9677C191.048 49.5367 190.498 49.8823 189.805 50.0044ZM181.114 52.3654C180.141 52.5368 179.263 52.3465 178.479 51.7944C177.695 51.2422 177.216 50.4774 177.044 49.4998C176.874 48.5355 177.062 47.6532 177.608 46.8528C178.151 46.0389 178.909 45.5463 179.881 45.3748C180.854 45.2033 181.741 45.4059 182.543 45.9825C183.343 46.5456 183.828 47.3093 183.998 48.2735C184.171 49.2512 183.976 50.1347 183.415 50.924C182.853 51.7134 182.086 52.1939 181.114 52.3654ZM190.664 60.6026C189.971 60.7248 189.336 60.5883 188.758 60.1931C188.178 59.7845 187.825 59.2253 187.7 58.5155C187.577 57.8192 187.72 57.1865 188.127 56.6175C188.533 56.035 189.082 55.6828 189.775 55.5606C190.481 55.4361 191.118 55.5793 191.685 55.9903C192.262 56.3854 192.613 56.9312 192.736 57.6276C192.861 58.3374 192.721 58.9835 192.315 59.5659C191.92 60.1325 191.37 60.4781 190.664 60.6026ZM183.404 56.3526C183.86 56.3689 184.274 56.4961 184.645 56.7344C185.03 56.9702 185.265 57.3292 185.35 57.8114C185.435 58.2935 185.331 58.7537 185.037 59.1921C184.742 59.6171 184.344 59.8183 183.846 59.7958C181.421 59.7539 179.024 59.9487 176.655 60.3802C174.297 60.796 171.979 61.4394 169.701 62.3105C169.225 62.4912 168.78 62.4246 168.368 62.1107C167.969 61.7944 167.728 61.402 167.645 60.9332C167.552 60.4803 167.632 60.0795 167.886 59.7308C168.152 59.3664 168.502 59.0907 168.936 58.9037C171.296 58.0319 173.675 57.3846 176.073 56.9618C178.471 56.5389 180.914 56.3359 183.404 56.3526Z" fill="white"/>
<rect x="221.346" y="40.6709" width="81.3418" height="81.3418" rx="18" transform="rotate(-30 221.346 40.6709)" fill="url(#paint2_linear_166_1369)"/>
<path d="M250.756 71.0258C256.617 73.0293 266.138 73.284 272.935 70.81C278.547 68.7675 281.307 66.1857 283.854 63.2647C269.448 58.3597 257.555 51.9152 247.379 44.6968C256.592 48.3672 266.131 51.2939 275.986 53.4506C267.631 49.0217 259.97 44.6972 252.904 39.3826C260.723 43.3221 279.146 49.9195 288.072 51.4918C288.155 49.5869 287.757 45.9521 286.638 42.8775C283.577 34.4682 277.583 29.8048 273.31 26.8364C289.87 30.035 298.59 41.2056 301.23 48.4586C301.823 50.0879 302.703 52.833 302.733 55.6197C308.564 59.1815 310.966 63.4855 311.837 65.8769C312.152 66.7441 312.269 67.4753 312.338 68.0752C312.386 68.8614 311.957 68.7495 311.629 68.4225C310.487 67.4988 307.551 65.0858 302.993 66.7448C297.539 68.7297 296.528 74.0676 287.096 77.5006C272.29 82.8897 257.468 76.3504 250.756 71.0258Z" fill="white"/>
<rect x="340.461" y="22.3691" width="81.6546" height="81.6546" rx="18" transform="rotate(-10 340.461 22.3691)" fill="url(#paint3_linear_166_1369)"/>
<path d="M391.42 35.6624C390.173 37.8581 387.773 39.7447 385.668 40.116C385.408 40.1619 385.163 40.1563 385.016 40.1577C384.972 40.0435 384.838 39.7012 384.772 39.3227C384.346 36.9096 385.151 34.2797 386.232 32.5278C387.562 30.2444 390.142 28.2771 392.491 27.7653C392.584 28.0172 392.666 28.3442 392.725 28.6754C393.15 31.0885 392.554 33.6573 391.42 35.6624ZM393.752 39.2029C395.076 38.9693 399.904 38.2644 403.847 42.2282C403.601 42.4911 399.321 46.0265 400.381 52.0355C401.603 58.9671 408.097 60.3833 408.295 60.3972C408.3 60.567 407.917 63.9276 406.273 67.6081C404.767 70.8252 403.175 74.1063 400.005 74.6653C396.811 75.2284 395.653 73.5055 392.01 74.1479C388.414 74.782 387.474 76.9235 384.588 77.4324C381.655 77.9496 379.149 75.6351 376.255 72.7792C372.854 69.4027 369.622 63.8012 368.621 58.1234C367.019 49.039 372.083 43.17 377.926 42.1397C381.002 41.5974 383.911 43.1577 385.875 42.8115C387.72 42.4861 390.227 39.8244 393.752 39.2029Z" fill="white"/>
<defs>
<linearGradient id="paint0_linear_166_1369" x1="81.3418" y1="0" x2="81.3418" y2="81.3418" gradientUnits="userSpaceOnUse">
<stop stop-color="#B9B9B9"/>
<stop offset="1" stop-color="#C8C8C8"/>
</linearGradient>
<linearGradient id="paint1_linear_166_1369" x1="159.786" y1="22.3689" x2="159.786" y2="103.711" gradientUnits="userSpaceOnUse">
<stop stop-color="#DE9CFF"/>
<stop offset="1" stop-color="#AF52DE"/>
</linearGradient>
<linearGradient id="paint2_linear_166_1369" x1="262.017" y1="40.6709" x2="262.017" y2="122.013" gradientUnits="userSpaceOnUse">
<stop stop-color="#FFC677"/>
<stop offset="1" stop-color="#FF9500"/>
</linearGradient>
<linearGradient id="paint3_linear_166_1369" x1="381.288" y1="22.3691" x2="381.288" y2="104.024" gradientUnits="userSpaceOnUse">
<stop stop-color="#A8D7FF"/>
<stop offset="1" stop-color="#6171FF"/>
</linearGradient>
</defs>
</svg>
