<svg width="401" height="144" viewBox="0 0 401 144" fill="none" xmlns="http://www.w3.org/2000/svg">
<mask id="path-1-outside-1_640_314" maskUnits="userSpaceOnUse" x="8.1234" y="17.0464" width="392.302" height="112.873" fill="black">
<rect fill="white" x="8.1234" y="17.0464" width="392.302" height="112.873"/>
<path d="M78.4719 100.769C78.7627 96.5657 79.1407 91.8798 79.6061 86.7116L82.2353 58.986L96.7828 57.2698L87.7923 116.426L72.1586 118.27L62.5292 92.6595C61.7206 90.4736 60.9364 88.2717 60.1765 86.0537C59.4166 83.8358 58.8646 82.1572 58.5204 81.0178L57.9699 79.3521C57.5437 83.5192 56.9945 88.1991 56.3222 93.3918L52.7618 120.559L37.4384 122.366L14.7734 66.9447L29.7865 65.1736L38.9506 91.5078C39.7074 93.6999 40.4414 95.9209 41.1526 98.1707C41.8608 100.395 42.374 102.078 42.6924 103.22L43.1699 104.934C43.4348 100.734 43.8258 96.046 44.3429 90.8717L47.1272 63.1278L64.9722 61.0226L74.1363 87.3569C74.8931 89.5489 75.6271 91.7699 76.3383 94.0198C77.0723 96.2407 77.6114 97.9209 77.9556 99.0603L78.4719 100.769ZM160.869 91.0487C161.16 86.845 161.538 82.1591 162.003 76.9908L164.633 49.2653L179.18 47.5491L170.19 106.705L154.556 108.549L144.926 82.9388C144.118 80.7529 143.334 78.5509 142.574 76.333C141.814 74.1151 141.262 72.4364 140.918 71.2971L140.367 69.6313C139.941 73.7985 139.392 78.4784 138.72 83.6711L135.159 110.838L119.836 112.646L97.1708 57.224L112.184 55.4529L121.348 81.7871C122.105 83.9792 122.839 86.2001 123.55 88.45C124.258 90.674 124.771 92.3573 125.09 93.4997L125.567 95.2134C125.832 91.0128 126.223 86.3253 126.74 81.151L129.525 53.4071L147.37 51.3019L156.534 77.6361C157.29 79.8282 158.024 82.0491 158.736 84.299C159.47 86.52 160.009 88.2002 160.353 89.3396L160.869 91.0487ZM190.634 104.293L183.874 46.9953L203.892 44.6338C207.073 44.2585 210.14 44.2506 213.093 44.6103C216.072 44.9668 218.931 45.757 221.672 46.9808C224.409 48.1788 226.839 49.7671 228.96 51.7457C231.081 53.7243 232.874 56.253 234.339 59.3318C235.8 62.3847 236.76 65.8508 237.218 69.7302C237.675 73.6095 237.552 77.2297 236.847 80.5906C236.139 83.9257 234.984 86.8022 233.381 89.2202C231.778 91.6382 229.785 93.7482 227.402 95.5503C225.018 97.3523 222.42 98.7734 219.605 99.8134C216.817 100.85 213.832 101.556 210.651 101.932L190.634 104.293ZM207.628 89.977C209.464 89.7604 211.166 89.4023 212.733 88.9028C214.323 88.3744 215.82 87.6208 217.225 86.6421C218.657 85.6604 219.844 84.4977 220.787 83.154C221.729 81.8103 222.41 80.1305 222.827 78.1145C223.271 76.0955 223.348 73.8576 223.058 71.4007C222.768 68.9437 222.174 66.798 221.276 64.9636C220.404 63.126 219.353 61.6636 218.123 60.5762C216.89 59.4629 215.465 58.6084 213.848 58.0125C212.253 57.3878 210.623 57.0163 208.957 56.8982C207.314 56.7511 205.574 56.7859 203.738 57.0025L199.122 57.5472L203.012 90.5216L207.628 89.977ZM273.958 95.0925C270.777 95.4678 267.692 95.4384 264.704 95.0042C261.739 94.5412 258.946 93.6513 256.326 92.3346C253.703 90.9921 251.364 89.2882 249.311 87.2228C247.281 85.1285 245.574 82.5504 244.19 79.4883C242.829 76.3973 241.927 72.9768 241.485 69.2268C241.043 65.4767 241.138 61.9517 241.771 58.6516C242.431 55.3485 243.518 52.4538 245.034 49.9674C246.573 47.452 248.463 45.2492 250.705 43.359C252.97 41.4398 255.479 39.9245 258.232 38.813C260.983 37.6756 263.922 36.9224 267.052 36.5532C274.526 35.6714 280.934 36.869 286.277 40.1458C291.616 43.3968 295.038 48.3949 296.542 55.1402L281.684 56.893C280.734 54.1731 279.025 52.0277 276.559 50.457C274.092 48.8862 271.372 48.2762 268.397 48.6271C264.182 49.1244 260.845 51.0653 258.386 54.4496C255.924 57.808 255.01 62.1769 255.645 67.5563C256.285 72.9874 258.181 77.0511 261.331 79.7475C264.507 82.4408 268.216 83.5373 272.457 83.0369C275.586 82.6677 278.132 81.4628 280.094 79.422C282.056 77.3812 283.138 74.7755 283.341 71.6049L298.432 69.8246C298.377 73.5809 297.704 76.9905 296.413 80.0534C295.145 83.0874 293.399 85.6271 291.176 87.6726C288.978 89.715 286.42 91.3672 283.501 92.6294C280.604 93.8626 277.423 94.6837 273.958 95.0925ZM305.191 90.7785L303.868 79.5672L321.432 61.4078C324.071 58.6578 325.938 56.2611 327.034 54.2175C328.153 52.145 328.606 50.2036 328.393 48.3933C328.155 46.376 327.29 44.826 325.799 43.7433C324.307 42.6605 322.489 42.2458 320.342 42.499C317.859 42.7919 316.051 44.0279 314.919 46.2068C313.812 48.3827 313.569 51.0992 314.189 54.3563L300.766 55.9398C300.052 52.7725 300.016 49.6956 300.661 46.7089C301.305 43.7223 302.465 41.1074 304.14 38.8644C305.842 36.6183 307.968 34.7417 310.517 33.2348C313.092 31.7247 315.893 30.7912 318.919 30.4343C325.281 29.6837 330.633 30.8222 334.976 33.8499C339.345 36.8745 341.857 41.167 342.513 46.7274C342.95 50.4257 342.204 54.1061 340.276 57.7687C338.371 61.4023 335.154 65.3612 330.624 69.6453L323.63 76.3705L345.626 73.7756L347.049 85.8403L305.191 90.7785ZM373.929 83.2986C371.058 83.6373 368.266 83.534 365.553 82.9887C362.838 82.4175 360.392 81.4735 358.218 80.1567C356.043 78.8399 354.224 77.0879 352.76 74.9006C351.321 72.7103 350.453 70.2429 350.156 67.4985L363.346 65.9424C363.966 67.8622 365.026 69.2973 366.528 70.2476C368.056 71.195 369.867 71.545 371.962 71.2979C374.342 71.0172 376.17 70.0673 377.447 68.4481C378.748 66.8001 379.257 64.7864 378.977 62.407C378.696 60.0277 377.697 58.2313 375.981 57.0178C374.29 55.8012 372.178 55.3425 369.643 55.6415C366.178 56.0503 363.799 57.5633 362.509 60.1805L350.677 61.5764L351.617 27.206L385.794 23.174L387.222 35.2776L363.442 38.083L362.804 49.0143C363.917 47.7816 365.304 46.7527 366.963 45.9276C368.649 45.0995 370.435 44.574 372.323 44.3513C377.78 43.7075 382.444 44.901 386.316 47.9319C390.187 50.9627 392.448 55.2325 393.097 60.7412C393.808 66.7671 392.415 71.8481 388.917 75.9843C385.442 80.0916 380.446 82.5297 373.929 83.2986Z"/>
</mask>
<path d="M78.4719 100.769C78.7627 96.5657 79.1407 91.8798 79.6061 86.7116L82.2353 58.986L96.7828 57.2698L87.7923 116.426L72.1586 118.27L62.5292 92.6595C61.7206 90.4736 60.9364 88.2717 60.1765 86.0537C59.4166 83.8358 58.8646 82.1572 58.5204 81.0178L57.9699 79.3521C57.5437 83.5192 56.9945 88.1991 56.3222 93.3918L52.7618 120.559L37.4384 122.366L14.7734 66.9447L29.7865 65.1736L38.9506 91.5078C39.7074 93.6999 40.4414 95.9209 41.1526 98.1707C41.8608 100.395 42.374 102.078 42.6924 103.22L43.1699 104.934C43.4348 100.734 43.8258 96.046 44.3429 90.8717L47.1272 63.1278L64.9722 61.0226L74.1363 87.3569C74.8931 89.5489 75.6271 91.7699 76.3383 94.0198C77.0723 96.2407 77.6114 97.9209 77.9556 99.0603L78.4719 100.769ZM160.869 91.0487C161.16 86.845 161.538 82.1591 162.003 76.9908L164.633 49.2653L179.18 47.5491L170.19 106.705L154.556 108.549L144.926 82.9388C144.118 80.7529 143.334 78.5509 142.574 76.333C141.814 74.1151 141.262 72.4364 140.918 71.2971L140.367 69.6313C139.941 73.7985 139.392 78.4784 138.72 83.6711L135.159 110.838L119.836 112.646L97.1708 57.224L112.184 55.4529L121.348 81.7871C122.105 83.9792 122.839 86.2001 123.55 88.45C124.258 90.674 124.771 92.3573 125.09 93.4997L125.567 95.2134C125.832 91.0128 126.223 86.3253 126.74 81.151L129.525 53.4071L147.37 51.3019L156.534 77.6361C157.29 79.8282 158.024 82.0491 158.736 84.299C159.47 86.52 160.009 88.2002 160.353 89.3396L160.869 91.0487ZM190.634 104.293L183.874 46.9953L203.892 44.6338C207.073 44.2585 210.14 44.2506 213.093 44.6103C216.072 44.9668 218.931 45.757 221.672 46.9808C224.409 48.1788 226.839 49.7671 228.96 51.7457C231.081 53.7243 232.874 56.253 234.339 59.3318C235.8 62.3847 236.76 65.8508 237.218 69.7302C237.675 73.6095 237.552 77.2297 236.847 80.5906C236.139 83.9257 234.984 86.8022 233.381 89.2202C231.778 91.6382 229.785 93.7482 227.402 95.5503C225.018 97.3523 222.42 98.7734 219.605 99.8134C216.817 100.85 213.832 101.556 210.651 101.932L190.634 104.293ZM207.628 89.977C209.464 89.7604 211.166 89.4023 212.733 88.9028C214.323 88.3744 215.82 87.6208 217.225 86.6421C218.657 85.6604 219.844 84.4977 220.787 83.154C221.729 81.8103 222.41 80.1305 222.827 78.1145C223.271 76.0955 223.348 73.8576 223.058 71.4007C222.768 68.9437 222.174 66.798 221.276 64.9636C220.404 63.126 219.353 61.6636 218.123 60.5762C216.89 59.4629 215.465 58.6084 213.848 58.0125C212.253 57.3878 210.623 57.0163 208.957 56.8982C207.314 56.7511 205.574 56.7859 203.738 57.0025L199.122 57.5472L203.012 90.5216L207.628 89.977ZM273.958 95.0925C270.777 95.4678 267.692 95.4384 264.704 95.0042C261.739 94.5412 258.946 93.6513 256.326 92.3346C253.703 90.9921 251.364 89.2882 249.311 87.2228C247.281 85.1285 245.574 82.5504 244.19 79.4883C242.829 76.3973 241.927 72.9768 241.485 69.2268C241.043 65.4767 241.138 61.9517 241.771 58.6516C242.431 55.3485 243.518 52.4538 245.034 49.9674C246.573 47.452 248.463 45.2492 250.705 43.359C252.97 41.4398 255.479 39.9245 258.232 38.813C260.983 37.6756 263.922 36.9224 267.052 36.5532C274.526 35.6714 280.934 36.869 286.277 40.1458C291.616 43.3968 295.038 48.3949 296.542 55.1402L281.684 56.893C280.734 54.1731 279.025 52.0277 276.559 50.457C274.092 48.8862 271.372 48.2762 268.397 48.6271C264.182 49.1244 260.845 51.0653 258.386 54.4496C255.924 57.808 255.01 62.1769 255.645 67.5563C256.285 72.9874 258.181 77.0511 261.331 79.7475C264.507 82.4408 268.216 83.5373 272.457 83.0369C275.586 82.6677 278.132 81.4628 280.094 79.422C282.056 77.3812 283.138 74.7755 283.341 71.6049L298.432 69.8246C298.377 73.5809 297.704 76.9905 296.413 80.0534C295.145 83.0874 293.399 85.6271 291.176 87.6726C288.978 89.715 286.42 91.3672 283.501 92.6294C280.604 93.8626 277.423 94.6837 273.958 95.0925ZM305.191 90.7785L303.868 79.5672L321.432 61.4078C324.071 58.6578 325.938 56.2611 327.034 54.2175C328.153 52.145 328.606 50.2036 328.393 48.3933C328.155 46.376 327.29 44.826 325.799 43.7433C324.307 42.6605 322.489 42.2458 320.342 42.499C317.859 42.7919 316.051 44.0279 314.919 46.2068C313.812 48.3827 313.569 51.0992 314.189 54.3563L300.766 55.9398C300.052 52.7725 300.016 49.6956 300.661 46.7089C301.305 43.7223 302.465 41.1074 304.14 38.8644C305.842 36.6183 307.968 34.7417 310.517 33.2348C313.092 31.7247 315.893 30.7912 318.919 30.4343C325.281 29.6837 330.633 30.8222 334.976 33.8499C339.345 36.8745 341.857 41.167 342.513 46.7274C342.95 50.4257 342.204 54.1061 340.276 57.7687C338.371 61.4023 335.154 65.3612 330.624 69.6453L323.63 76.3705L345.626 73.7756L347.049 85.8403L305.191 90.7785ZM373.929 83.2986C371.058 83.6373 368.266 83.534 365.553 82.9887C362.838 82.4175 360.392 81.4735 358.218 80.1567C356.043 78.8399 354.224 77.0879 352.76 74.9006C351.321 72.7103 350.453 70.2429 350.156 67.4985L363.346 65.9424C363.966 67.8622 365.026 69.2973 366.528 70.2476C368.056 71.195 369.867 71.545 371.962 71.2979C374.342 71.0172 376.17 70.0673 377.447 68.4481C378.748 66.8001 379.257 64.7864 378.977 62.407C378.696 60.0277 377.697 58.2313 375.981 57.0178C374.29 55.8012 372.178 55.3425 369.643 55.6415C366.178 56.0503 363.799 57.5633 362.509 60.1805L350.677 61.5764L351.617 27.206L385.794 23.174L387.222 35.2776L363.442 38.083L362.804 49.0143C363.917 47.7816 365.304 46.7527 366.963 45.9276C368.649 45.0995 370.435 44.574 372.323 44.3513C377.78 43.7075 382.444 44.901 386.316 47.9319C390.187 50.9627 392.448 55.2325 393.097 60.7412C393.808 66.7671 392.415 71.8481 388.917 75.9843C385.442 80.0916 380.446 82.5297 373.929 83.2986Z" fill="#BB5BF3"/>
<path d="M78.4719 100.769L74.6428 101.926L82.4624 101.045L78.4719 100.769ZM79.6061 86.7116L75.624 86.3339L75.6231 86.3434L75.6223 86.3528L79.6061 86.7116ZM82.2353 58.986L81.7666 55.0136L78.5581 55.3921L78.2531 58.6084L82.2353 58.986ZM96.7828 57.2698L100.737 57.8708L101.526 52.6825L96.3142 53.2973L96.7828 57.2698ZM87.7923 116.426L88.261 120.398L91.2888 120.041L91.7469 117.027L87.7923 116.426ZM72.1586 118.27L68.4145 119.678L69.5167 122.61L72.6272 122.243L72.1586 118.27ZM62.5292 92.6595L58.7776 94.0472L58.7813 94.0572L58.7851 94.0673L62.5292 92.6595ZM58.5204 81.0178L62.3495 79.8611L62.3346 79.8116L62.3184 79.7626L58.5204 81.0178ZM57.9699 79.3521L61.7678 78.0969L53.9906 78.9451L57.9699 79.3521ZM56.3222 93.3918L60.2883 93.9116L60.2891 93.9054L56.3222 93.3918ZM52.7618 120.559L53.2305 124.531L56.3232 124.166L56.7279 121.078L52.7618 120.559ZM37.4384 122.366L33.736 123.88L34.8871 126.695L37.907 126.339L37.4384 122.366ZM14.7734 66.9447L14.3048 62.9723L9.07939 63.5887L11.0711 68.4588L14.7734 66.9447ZM29.7865 65.1736L33.5643 63.859L32.5084 60.8247L29.3178 61.2011L29.7865 65.1736ZM38.9506 91.5078L42.7316 90.2024L42.7284 90.1932L38.9506 91.5078ZM41.1526 98.1707L37.3386 99.3764L37.3412 99.3844L41.1526 98.1707ZM42.6924 103.22L38.8392 104.294L42.6924 103.22ZM43.1699 104.934L39.3167 106.008L47.1619 105.186L43.1699 104.934ZM44.3429 90.8717L40.3629 90.4723L40.3627 90.4739L44.3429 90.8717ZM47.1272 63.1278L46.6585 59.1554L43.468 59.5318L43.1472 62.7284L47.1272 63.1278ZM64.9722 61.0226L68.75 59.708L67.6941 56.6738L64.5035 57.0502L64.9722 61.0226ZM74.1363 87.3569L77.9173 86.0514L77.9141 86.0422L74.1363 87.3569ZM76.3383 94.0198L72.5243 95.2254L72.5322 95.2502L72.5404 95.275L76.3383 94.0198ZM77.9556 99.0603L74.1265 100.217L77.9556 99.0603ZM78.4719 100.769L82.4624 101.045C82.7509 96.8748 83.1266 92.217 83.59 87.0703L79.6061 86.7116L75.6223 86.3528C75.1549 91.5426 74.7745 96.2567 74.4815 100.493L78.4719 100.769ZM79.6061 86.7116L83.5883 87.0892L86.2174 59.3636L82.2353 58.986L78.2531 58.6084L75.624 86.3339L79.6061 86.7116ZM82.2353 58.986L82.7039 62.9585L97.2515 61.2422L96.7828 57.2698L96.3142 53.2973L81.7666 55.0136L82.2353 58.986ZM96.7828 57.2698L92.8282 56.6688L83.8377 115.825L87.7923 116.426L91.7469 117.027L100.737 57.8708L96.7828 57.2698ZM87.7923 116.426L87.3237 112.453L71.6899 114.298L72.1586 118.27L72.6272 122.243L88.261 120.398L87.7923 116.426ZM72.1586 118.27L75.9026 116.862L66.2732 91.2518L62.5292 92.6595L58.7851 94.0673L68.4145 119.678L72.1586 118.27ZM62.5292 92.6595L66.2807 91.2719C65.4834 89.1164 64.7101 86.9448 63.9606 84.7573L60.1765 86.0537L56.3924 87.3502C57.1627 89.5985 57.9578 91.8308 58.7776 94.0472L62.5292 92.6595ZM60.1765 86.0537L63.9606 84.7573C63.2045 82.5505 62.6718 80.928 62.3495 79.8611L58.5204 81.0178L54.6913 82.1745C55.0574 83.3864 55.6287 85.1212 56.3924 87.3502L60.1765 86.0537ZM58.5204 81.0178L62.3184 79.7626L61.7678 78.0969L57.9699 79.3521L54.1719 80.6073L54.7224 82.273L58.5204 81.0178ZM57.9699 79.3521L53.9906 78.9451C53.5689 83.0692 53.0241 87.7127 52.3553 92.8782L56.3222 93.3918L60.2891 93.9054C60.9649 88.6856 61.5186 83.9692 61.9491 79.759L57.9699 79.3521ZM56.3222 93.3918L52.3561 92.872L48.7957 120.039L52.7618 120.559L56.7279 121.078L60.2883 93.9116L56.3222 93.3918ZM52.7618 120.559L52.2932 116.586L36.9697 118.394L37.4384 122.366L37.907 126.339L53.2305 124.531L52.7618 120.559ZM37.4384 122.366L41.1408 120.852L18.4758 65.4306L14.7734 66.9447L11.0711 68.4588L33.736 123.88L37.4384 122.366ZM14.7734 66.9447L15.2421 70.9172L30.2551 69.146L29.7865 65.1736L29.3178 61.2011L14.3048 62.9723L14.7734 66.9447ZM29.7865 65.1736L26.0087 66.4882L35.1728 92.8225L38.9506 91.5078L42.7284 90.1932L33.5643 63.859L29.7865 65.1736ZM38.9506 91.5078L35.1696 92.8133C35.9148 94.9716 36.6378 97.1593 37.3386 99.3764L41.1526 98.1707L44.9666 96.9651C44.245 94.6824 43.5 92.4282 42.7316 90.2024L38.9506 91.5078ZM41.1526 98.1707L37.3412 99.3844C38.0458 101.597 38.541 103.224 38.8392 104.294L42.6924 103.22L46.5456 102.147C46.207 100.932 45.6758 99.1923 44.9641 96.9571L41.1526 98.1707ZM42.6924 103.22L38.8392 104.294L39.3167 106.008L43.1699 104.934L47.0231 103.86L46.5456 102.147L42.6924 103.22ZM43.1699 104.934L47.1619 105.186C47.4231 101.044 47.8097 96.406 48.323 91.2695L44.3429 90.8717L40.3627 90.4739C39.8418 95.6861 39.4464 100.423 39.1778 104.682L43.1699 104.934ZM44.3429 90.8717L48.3229 91.2711L51.1072 63.5273L47.1272 63.1278L43.1472 62.7284L40.3629 90.4723L44.3429 90.8717ZM47.1272 63.1278L47.5958 67.1003L65.4408 64.9951L64.9722 61.0226L64.5035 57.0502L46.6585 59.1554L47.1272 63.1278ZM64.9722 61.0226L61.1944 62.3372L70.3585 88.6715L74.1363 87.3569L77.9141 86.0422L68.75 59.708L64.9722 61.0226ZM74.1363 87.3569L70.3553 88.6623C71.1005 90.8206 71.8235 93.0083 72.5243 95.2254L76.3383 94.0198L80.1523 92.8141C79.4307 90.5314 78.6857 88.2772 77.9172 86.0514L74.1363 87.3569ZM76.3383 94.0198L72.5404 95.275C73.2718 97.488 73.7977 99.1285 74.1265 100.217L77.9556 99.0603L81.7847 97.9036C81.4251 96.7132 80.8729 94.9935 80.1363 92.7645L76.3383 94.0198ZM77.9556 99.0603L74.1265 100.217L74.6428 101.926L78.4719 100.769L82.301 99.6127L81.7847 97.9036L77.9556 99.0603ZM160.869 91.0487L157.04 92.2054L164.86 91.3247L160.869 91.0487ZM162.003 76.9908L158.021 76.6132L158.02 76.6227L158.02 76.6321L162.003 76.9908ZM164.633 49.2653L164.164 45.2928L160.955 45.6714L160.65 48.8877L164.633 49.2653ZM179.18 47.5491L183.135 48.1501L183.923 42.9618L178.712 43.5766L179.18 47.5491ZM170.19 106.705L170.658 110.678L173.686 110.32L174.144 107.306L170.19 106.705ZM154.556 108.549L150.812 109.957L151.914 112.889L155.025 112.522L154.556 108.549ZM144.926 82.9388L141.175 84.3265L141.179 84.3365L141.182 84.3466L144.926 82.9388ZM140.918 71.2971L144.747 70.1403L144.732 70.0909L144.716 70.0418L140.918 71.2971ZM140.367 69.6313L144.165 68.3761L136.388 69.2244L140.367 69.6313ZM138.72 83.6711L142.686 84.1908L142.686 84.1847L138.72 83.6711ZM135.159 110.838L135.628 114.81L138.721 114.445L139.125 111.358L135.159 110.838ZM119.836 112.646L116.133 114.16L117.284 116.974L120.304 116.618L119.836 112.646ZM97.1708 57.224L96.7021 53.2516L91.4767 53.868L93.4684 58.7381L97.1708 57.224ZM112.184 55.4529L115.962 54.1382L114.906 51.104L111.715 51.4804L112.184 55.4529ZM121.348 81.7871L125.129 80.4817L125.126 80.4725L121.348 81.7871ZM123.55 88.45L119.736 89.6556L119.739 89.6636L123.55 88.45ZM125.09 93.4997L121.236 94.5734L125.09 93.4997ZM125.567 95.2134L121.714 96.287L129.559 95.4651L125.567 95.2134ZM126.74 81.151L122.76 80.7515L122.76 80.7532L126.74 81.151ZM129.525 53.4071L129.056 49.4347L125.865 49.8111L125.545 53.0077L129.525 53.4071ZM147.37 51.3019L151.147 49.9872L150.091 46.953L146.901 47.3294L147.37 51.3019ZM156.534 77.6361L160.315 76.3307L160.311 76.3215L156.534 77.6361ZM158.736 84.299L154.922 85.5047L154.93 85.5295L154.938 85.5542L158.736 84.299ZM160.353 89.3396L156.524 90.4963L160.353 89.3396ZM160.869 91.0487L164.86 91.3247C165.148 87.1541 165.524 82.4963 165.987 77.3496L162.003 76.9908L158.02 76.6321C157.552 81.8219 157.172 86.536 156.879 90.7727L160.869 91.0487ZM162.003 76.9908L165.986 77.3684L168.615 49.6429L164.633 49.2653L160.65 48.8877L158.021 76.6132L162.003 76.9908ZM164.633 49.2653L165.101 53.2377L179.649 51.5215L179.18 47.5491L178.712 43.5766L164.164 45.2928L164.633 49.2653ZM179.18 47.5491L175.226 46.948L166.235 106.104L170.19 106.705L174.144 107.306L183.135 48.1501L179.18 47.5491ZM170.19 106.705L169.721 102.733L154.087 104.577L154.556 108.549L155.025 112.522L170.658 110.678L170.19 106.705ZM154.556 108.549L158.3 107.142L148.671 81.5311L144.926 82.9388L141.182 84.3466L150.812 109.957L154.556 108.549ZM144.926 82.9388L148.678 81.5511C147.881 79.3956 147.107 77.2241 146.358 75.0366L142.574 76.333L138.79 77.6295C139.56 79.8777 140.355 82.1101 141.175 84.3265L144.926 82.9388ZM142.574 76.333L146.358 75.0366C145.602 72.8298 145.069 71.2073 144.747 70.1403L140.918 71.2971L137.089 72.4538C137.455 73.6656 138.026 75.4004 138.79 77.6295L142.574 76.333ZM140.918 71.2971L144.716 70.0418L144.165 68.3761L140.367 69.6313L136.569 70.8865L137.12 72.5523L140.918 71.2971ZM140.367 69.6313L136.388 69.2244C135.966 73.3485 135.421 77.992 134.753 83.1575L138.72 83.6711L142.686 84.1847C143.362 78.9648 143.916 74.2485 144.346 70.0383L140.367 69.6313ZM138.72 83.6711L134.753 83.1513L131.193 110.318L135.159 110.838L139.125 111.358L142.686 84.1908L138.72 83.6711ZM135.159 110.838L134.691 106.865L119.367 108.673L119.836 112.646L120.304 116.618L135.628 114.81L135.159 110.838ZM119.836 112.646L123.538 111.131L100.873 55.7099L97.1708 57.224L93.4684 58.7381L116.133 114.16L119.836 112.646ZM97.1708 57.224L97.6394 61.1965L112.652 59.4253L112.184 55.4529L111.715 51.4804L96.7021 53.2516L97.1708 57.224ZM112.184 55.4529L108.406 56.7675L117.57 83.1018L121.348 81.7871L125.126 80.4725L115.962 54.1382L112.184 55.4529ZM121.348 81.7871L117.567 83.0925C118.312 85.2509 119.035 87.4386 119.736 89.6556L123.55 88.45L127.364 87.2444C126.642 84.9617 125.897 82.7074 125.129 80.4817L121.348 81.7871ZM123.55 88.45L119.739 89.6636C120.443 91.8765 120.938 93.5034 121.236 94.5734L125.09 93.4997L128.943 92.426C128.604 91.2111 128.073 89.4716 127.361 87.2364L123.55 88.45ZM125.09 93.4997L121.236 94.5734L121.714 96.287L125.567 95.2134L129.42 94.1397L128.943 92.426L125.09 93.4997ZM125.567 95.2134L129.559 95.4651C129.82 91.323 130.207 86.6853 130.72 81.5487L126.74 81.151L122.76 80.7532C122.239 85.9654 121.844 90.7026 121.575 94.9616L125.567 95.2134ZM126.74 81.151L130.72 81.5504L133.505 53.8065L129.525 53.4071L125.545 53.0077L122.76 80.7515L126.74 81.151ZM129.525 53.4071L129.993 57.3796L147.838 55.2743L147.37 51.3019L146.901 47.3294L129.056 49.4347L129.525 53.4071ZM147.37 51.3019L143.592 52.6165L152.756 78.9508L156.534 77.6361L160.311 76.3215L151.147 49.9872L147.37 51.3019ZM156.534 77.6361L152.753 78.9416C153.498 81.0999 154.221 83.2876 154.922 85.5047L158.736 84.299L162.55 83.0934C161.828 80.8107 161.083 78.5565 160.315 76.3307L156.534 77.6361ZM158.736 84.299L154.938 85.5542C155.669 87.7673 156.195 89.4078 156.524 90.4963L160.353 89.3396L164.182 88.1828C163.822 86.9925 163.27 85.2727 162.534 83.0438L158.736 84.299ZM160.353 89.3396L156.524 90.4963L157.04 92.2054L160.869 91.0487L164.698 89.8919L164.182 88.1828L160.353 89.3396ZM190.634 104.293L186.661 104.762L187.13 108.734L191.102 108.266L190.634 104.293ZM183.874 46.9953L183.406 43.0228L179.433 43.4915L179.902 47.4639L183.874 46.9953ZM213.093 44.6103L212.609 48.5809L212.617 48.5819L213.093 44.6103ZM221.672 46.9808L220.041 50.6332L220.054 50.6393L220.068 50.6453L221.672 46.9808ZM234.339 59.3318L230.727 61.0501L230.731 61.059L234.339 59.3318ZM236.847 80.5906L240.76 81.4211L240.762 81.4116L236.847 80.5906ZM227.402 95.5503L224.989 92.3596L227.402 95.5503ZM219.605 99.8134L218.219 96.0614L218.211 96.0642L219.605 99.8134ZM212.733 88.9028L213.948 92.7138L213.971 92.7063L213.995 92.6986L212.733 88.9028ZM217.225 86.6421L214.963 83.3435L214.951 83.3515L214.94 83.3596L217.225 86.6421ZM222.827 78.1145L218.921 77.2562L218.916 77.2795L218.911 77.3029L222.827 78.1145ZM221.276 64.9636L217.663 66.679L217.673 66.7008L217.684 66.7225L221.276 64.9636ZM218.123 60.5762L215.442 63.5447L215.458 63.5587L215.473 63.5726L218.123 60.5762ZM213.848 58.0125L212.389 61.7369L212.427 61.7518L212.465 61.7659L213.848 58.0125ZM208.957 56.8982L208.601 60.8823L208.637 60.8855L208.674 60.8882L208.957 56.8982ZM199.122 57.5472L198.653 53.5747L194.681 54.0434L195.149 58.0158L199.122 57.5472ZM203.012 90.5216L199.039 90.9903L199.508 94.9627L203.48 94.4941L203.012 90.5216ZM190.634 104.293L194.606 103.825L187.847 46.5266L183.874 46.9953L179.902 47.4639L186.661 104.762L190.634 104.293ZM183.874 46.9953L184.343 50.9677L204.36 48.6062L203.892 44.6338L203.423 40.6613L183.406 43.0228L183.874 46.9953ZM203.892 44.6338L204.36 48.6062C207.249 48.2654 209.996 48.2626 212.609 48.5809L213.093 44.6103L213.576 40.6396C210.284 40.2386 206.896 40.2515 203.423 40.6613L203.892 44.6338ZM213.093 44.6103L212.617 48.5819C215.197 48.8907 217.667 49.5732 220.041 50.6332L221.672 46.9808L223.303 43.3285C220.196 41.9408 216.946 41.0429 213.568 40.6386L213.093 44.6103ZM221.672 46.9808L220.068 50.6453C222.404 51.6676 224.451 53.0097 226.232 54.6709L228.96 51.7457L231.688 48.8205C229.226 46.5245 226.414 44.69 223.276 43.3164L221.672 46.9808ZM228.96 51.7457L226.232 54.6709C227.927 56.2518 229.441 58.3474 230.727 61.0501L234.339 59.3318L237.951 57.6135C236.308 54.1587 234.236 51.1968 231.688 48.8205L228.96 51.7457ZM234.339 59.3318L230.731 61.059C231.976 63.6594 232.831 66.6901 233.245 70.1988L237.218 69.7302L241.19 69.2616C240.689 65.0115 239.625 61.11 237.947 57.6046L234.339 59.3318ZM237.218 69.7302L233.245 70.1988C233.659 73.7063 233.537 76.8865 232.932 79.7696L236.847 80.5906L240.762 81.4116C241.567 77.5729 241.692 73.5128 241.19 69.2616L237.218 69.7302ZM236.847 80.5906L232.934 79.7601C232.313 82.6878 231.328 85.0782 230.047 87.0102L233.381 89.2202L236.715 91.4302C238.64 88.5263 239.965 85.1636 240.76 81.4211L236.847 80.5906ZM233.381 89.2202L230.047 87.0102C228.701 89.0403 227.023 90.8217 224.989 92.3596L227.402 95.5503L229.814 98.7409C232.547 96.6746 234.855 94.236 236.715 91.4302L233.381 89.2202ZM227.402 95.5503L224.989 92.3596C222.92 93.9243 220.667 95.1567 218.219 96.0614L219.605 99.8134L220.992 103.565C224.172 102.39 227.117 100.78 229.814 98.7409L227.402 95.5503ZM219.605 99.8134L218.211 96.0642C215.743 96.982 213.071 97.6185 210.183 97.9593L210.651 101.932L211.12 105.904C214.593 105.494 217.891 104.719 221 103.563L219.605 99.8134ZM210.651 101.932L210.183 97.9593L190.165 100.321L190.634 104.293L191.102 108.266L211.12 105.904L210.651 101.932ZM207.628 89.977L208.097 93.9495C210.156 93.7066 212.11 93.2997 213.948 92.7138L212.733 88.9028L211.518 85.0918C210.222 85.5049 208.773 85.8142 207.16 86.0045L207.628 89.977ZM212.733 88.9028L213.995 92.6986C215.957 92.0464 217.798 91.1177 219.511 89.9246L217.225 86.6421L214.94 83.3596C213.842 84.1239 212.688 84.7024 211.471 85.107L212.733 88.9028ZM217.225 86.6421L219.488 89.9407C221.291 88.7041 222.828 87.2087 224.061 85.4515L220.787 83.154L217.512 80.8565C216.86 81.7866 216.023 82.6166 214.963 83.3435L217.225 86.6421ZM220.787 83.154L224.061 85.4515C225.386 83.5635 226.243 81.3448 226.744 78.9261L222.827 78.1145L218.911 77.3029C218.576 78.9162 218.073 80.0571 217.512 80.8565L220.787 83.154ZM222.827 78.1145L226.734 78.9729C227.29 76.4422 227.363 73.7472 227.031 70.932L223.058 71.4007L219.086 71.8693C219.333 73.968 219.252 75.7489 218.921 77.2562L222.827 78.1145ZM223.058 71.4007L227.031 70.932C226.699 68.1183 226.002 65.52 224.868 63.2046L221.276 64.9636L217.684 66.7225C218.346 68.076 218.838 69.7691 219.086 71.8693L223.058 71.4007ZM221.276 64.9636L224.889 63.2481C223.839 61.0361 222.491 59.0993 220.773 57.5798L218.123 60.5762L215.473 63.5726C216.214 64.2278 216.968 65.2159 217.663 66.679L221.276 64.9636ZM218.123 60.5762L220.804 57.6076C219.178 56.1394 217.309 55.0246 215.231 54.2591L213.848 58.0125L212.465 61.7659C213.622 62.1922 214.602 62.7864 215.442 63.5447L218.123 60.5762ZM213.848 58.0125L215.307 54.2882C213.346 53.5197 211.32 53.0556 209.24 52.9082L208.957 56.8982L208.674 60.8882C209.927 60.977 211.161 61.2558 212.389 61.7369L213.848 58.0125ZM208.957 56.8982L209.314 52.9141C207.365 52.7397 205.347 52.785 203.269 53.0301L203.738 57.0025L204.207 60.975C205.801 60.7869 207.263 60.7625 208.601 60.8823L208.957 56.8982ZM203.738 57.0025L203.269 53.0301L198.653 53.5747L199.122 57.5472L199.59 61.5196L204.207 60.975L203.738 57.0025ZM199.122 57.5472L195.149 58.0158L199.039 90.9903L203.012 90.5216L206.984 90.053L203.094 57.0785L199.122 57.5472ZM203.012 90.5216L203.48 94.4941L208.097 93.9495L207.628 89.977L207.16 86.0045L202.543 86.5492L203.012 90.5216ZM264.704 95.0042L264.087 98.9563L264.108 98.9596L264.129 98.9627L264.704 95.0042ZM256.326 92.3346L254.503 95.8954L254.517 95.9022L254.53 95.9088L256.326 92.3346ZM249.311 87.2228L246.439 90.007L246.457 90.025L246.474 90.0427L249.311 87.2228ZM244.19 79.4883L240.529 81.1003L240.537 81.118L240.545 81.1357L244.19 79.4883ZM241.771 58.6516L237.849 57.8688L237.846 57.8832L237.843 57.8977L241.771 58.6516ZM245.034 49.9674L241.622 47.8799L241.619 47.885L245.034 49.9674ZM250.705 43.359L253.284 46.417L253.291 46.4106L250.705 43.359ZM258.232 38.813L259.73 42.5221L259.745 42.5158L259.761 42.5094L258.232 38.813ZM286.277 40.1458L284.186 43.5555L284.197 43.5624L286.277 40.1458ZM296.542 55.1402L297.011 59.1126L301.41 58.5936L300.446 54.2698L296.542 55.1402ZM281.684 56.893L277.908 58.2122L278.966 61.2414L282.153 60.8654L281.684 56.893ZM258.386 54.4496L261.612 56.8145L261.617 56.8077L261.622 56.8008L258.386 54.4496ZM261.331 79.7475L258.73 82.7863L258.737 82.7923L258.744 82.7982L261.331 79.7475ZM283.341 71.6049L282.872 67.6324L279.562 68.023L279.349 71.3495L283.341 71.6049ZM298.432 69.8246L302.431 69.8832L302.498 65.3171L297.963 65.8521L298.432 69.8246ZM296.413 80.0534L292.727 78.5001L292.722 78.5111L296.413 80.0534ZM291.176 87.6726L288.468 84.7287L288.46 84.7356L288.453 84.7425L291.176 87.6726ZM283.501 92.6294L285.068 96.3097L285.078 96.3053L285.088 96.3009L283.501 92.6294ZM273.958 95.0925L273.489 91.1201C270.634 91.4569 267.901 91.4267 265.279 91.0458L264.704 95.0042L264.129 98.9627C267.483 99.45 270.919 99.4787 274.426 99.065L273.958 95.0925ZM264.704 95.0042L265.321 91.0521C262.756 90.6516 260.362 89.8864 258.122 88.7605L256.326 92.3346L254.53 95.9088C257.53 97.4162 260.721 98.4307 264.087 98.9563L264.704 95.0042ZM256.326 92.3346L258.148 88.7739C255.895 87.621 253.901 86.1658 252.148 84.4029L249.311 87.2228L246.474 90.0427C248.828 92.4106 251.51 94.3633 254.503 95.8954L256.326 92.3346ZM249.311 87.2228L252.183 84.4387C250.519 82.7221 249.057 80.5453 247.835 77.8409L244.19 79.4883L240.545 81.1357C242.091 84.5555 244.043 87.535 246.439 90.007L249.311 87.2228ZM244.19 79.4883L247.851 77.8763C246.668 75.1889 245.859 72.1596 245.457 68.7581L241.485 69.2268L237.513 69.6954C237.996 73.794 238.991 77.6057 240.529 81.1003L244.19 79.4883ZM241.485 69.2268L245.457 68.7581C245.057 65.3657 245.153 62.2564 245.7 59.4056L241.771 58.6516L237.843 57.8977C237.124 61.647 237.028 65.5877 237.513 69.6954L241.485 69.2268ZM241.771 58.6516L245.694 59.4345C246.276 56.5201 247.212 54.0787 248.449 52.0497L245.034 49.9674L241.619 47.885C239.824 50.8288 238.586 54.1769 237.849 57.8688L241.771 58.6516ZM245.034 49.9674L248.446 52.0548C249.762 49.9036 251.372 48.029 253.284 46.417L250.705 43.359L248.127 40.3009C245.555 42.4694 243.384 45.0005 241.622 47.8799L245.034 49.9674ZM250.705 43.359L253.291 46.4106C255.23 44.7673 257.372 43.474 259.73 42.5221L258.232 38.813L256.735 35.1038C253.586 36.375 250.71 38.1123 248.119 40.3074L250.705 43.359ZM258.232 38.813L259.761 42.5094C262.153 41.5202 264.734 40.8544 267.52 40.5256L267.052 36.5532L266.583 32.5807C263.111 32.9904 259.812 33.831 256.704 35.1166L258.232 38.813ZM267.052 36.5532L267.52 40.5256C274.288 39.7273 279.754 40.8375 284.186 43.5555L286.277 40.1458L288.368 36.7361C282.115 32.9004 274.764 31.6156 266.583 32.5807L267.052 36.5532ZM286.277 40.1458L284.197 43.5624C288.505 46.1852 291.343 50.203 292.638 56.0105L296.542 55.1402L300.446 54.2698C298.733 46.5867 294.728 40.6083 288.357 36.7292L286.277 40.1458ZM296.542 55.1402L296.073 51.1677L281.215 52.9205L281.684 56.893L282.153 60.8654L297.011 59.1126L296.542 55.1402ZM281.684 56.893L285.46 55.5738C284.209 51.9919 281.92 49.1286 278.707 47.083L276.559 50.457L274.41 53.8309C276.131 54.9269 277.259 56.3543 277.908 58.2122L281.684 56.893ZM276.559 50.457L278.707 47.083C275.443 45.0043 271.794 44.1986 267.929 44.6547L268.397 48.6271L268.866 52.5996C270.949 52.3538 272.741 52.768 274.41 53.8309L276.559 50.457ZM268.397 48.6271L267.929 44.6547C262.624 45.2805 258.275 47.7963 255.15 52.0984L258.386 54.4496L261.622 56.8008C263.414 54.3342 265.74 52.9683 268.866 52.5996L268.397 48.6271ZM258.386 54.4496L255.16 52.0847C251.937 56.4813 250.956 61.9523 251.672 68.0249L255.645 67.5563L259.617 67.0877C259.064 62.4016 259.911 59.1348 261.612 56.8145L258.386 54.4496ZM255.645 67.5563L251.672 68.0249C252.392 74.1284 254.598 79.2498 258.73 82.7863L261.331 79.7475L263.932 76.7087C261.763 74.8524 260.178 71.8464 259.617 67.0877L255.645 67.5563ZM261.331 79.7475L258.744 82.7982C262.791 86.23 267.614 87.636 272.926 87.0094L272.457 83.0369L271.988 79.0645C268.817 79.4386 266.223 78.6516 263.918 76.6968L261.331 79.7475ZM272.457 83.0369L272.926 87.0094C276.864 86.5447 280.301 84.9786 282.977 82.1941L280.094 79.422L277.21 76.6498C275.963 77.9469 274.309 78.7907 271.988 79.0645L272.457 83.0369ZM280.094 79.422L282.977 82.1941C285.675 79.3879 287.077 75.8514 287.333 71.8603L283.341 71.6049L279.349 71.3495C279.199 73.6995 278.436 75.3745 277.21 76.6498L280.094 79.422ZM283.341 71.6049L283.81 75.5773L298.9 73.797L298.432 69.8246L297.963 65.8521L282.872 67.6324L283.341 71.6049ZM298.432 69.8246L294.432 69.7659C294.384 73.0751 293.794 75.9684 292.727 78.5001L296.413 80.0534L300.099 81.6066C301.614 78.0126 302.37 74.0866 302.431 69.8832L298.432 69.8246ZM296.413 80.0534L292.722 78.5111C291.657 81.0602 290.23 83.1076 288.468 84.7287L291.176 87.6726L293.884 90.6165C296.569 88.1467 298.633 85.1147 300.104 81.5957L296.413 80.0534ZM291.176 87.6726L288.453 84.7425C286.608 86.4567 284.44 87.8655 281.913 88.9579L283.501 92.6294L285.088 96.3009C288.4 94.869 291.348 92.9732 293.899 90.6027L291.176 87.6726ZM283.501 92.6294L281.934 88.9491C279.423 90.018 276.617 90.7511 273.489 91.1201L273.958 95.0925L274.426 99.065C278.23 98.6163 281.785 97.7073 285.068 96.3097L283.501 92.6294ZM305.191 90.7785L301.218 91.2472L301.687 95.2196L305.66 94.751L305.191 90.7785ZM303.868 79.5672L300.993 76.7863L299.673 78.1507L299.896 80.0358L303.868 79.5672ZM321.432 61.4078L324.307 64.1887L324.313 64.1829L324.318 64.1772L321.432 61.4078ZM327.034 54.2175L323.515 52.317L323.51 52.3266L327.034 54.2175ZM314.919 46.2068L311.37 44.3619L311.361 44.3775L311.353 44.3932L314.919 46.2068ZM314.189 54.3563L314.657 58.3287L318.921 57.8257L318.118 53.608L314.189 54.3563ZM300.766 55.9398L296.864 56.8201L297.657 60.3343L301.235 59.9122L300.766 55.9398ZM304.14 38.8644L300.952 36.4488L300.944 36.4595L300.936 36.4703L304.14 38.8644ZM310.517 33.2348L308.494 29.7842L308.482 29.7914L310.517 33.2348ZM334.976 33.8499L332.689 37.1312L332.699 37.1386L334.976 33.8499ZM340.276 57.7687L336.736 55.9055L336.733 55.9113L340.276 57.7687ZM330.624 69.6453L327.876 66.7393L327.864 66.7506L327.852 66.7619L330.624 69.6453ZM323.63 76.3705L320.858 73.4871L312.276 81.7377L324.099 80.343L323.63 76.3705ZM345.626 73.7756L349.598 73.3069L349.13 69.3345L345.157 69.8031L345.626 73.7756ZM347.049 85.8403L347.518 89.8128L351.49 89.3442L351.022 85.3717L347.049 85.8403ZM305.191 90.7785L309.163 90.3099L307.841 79.0986L303.868 79.5672L299.896 80.0358L301.218 91.2472L305.191 90.7785ZM303.868 79.5672L306.743 82.3481L324.307 64.1887L321.432 61.4078L318.557 58.6269L300.993 76.7863L303.868 79.5672ZM321.432 61.4078L324.318 64.1772C327.069 61.31 329.217 58.6114 330.559 56.1084L327.034 54.2175L323.51 52.3266C322.66 53.9107 321.072 56.0056 318.546 58.6384L321.432 61.4078ZM327.034 54.2175L330.554 56.118C331.95 53.532 332.7 50.7619 332.365 47.9246L328.393 48.3933L324.42 48.8619C324.513 49.6454 324.357 50.7581 323.515 52.317L327.034 54.2175ZM328.393 48.3933L332.365 47.9246C332.011 44.9247 330.641 42.3161 328.149 40.5064L325.799 43.7433L323.449 46.9801C323.939 47.3359 324.298 47.8273 324.42 48.8619L328.393 48.3933ZM325.799 43.7433L328.149 40.5064C325.705 38.7325 322.835 38.1772 319.873 38.5266L320.342 42.499L320.811 46.4715C322.142 46.3144 322.909 46.5886 323.449 46.9801L325.799 43.7433ZM320.342 42.499L319.873 38.5266C316.103 38.9713 313.126 40.9822 311.37 44.3619L314.919 46.2068L318.468 48.0518C318.976 47.0736 319.615 46.6125 320.811 46.4715L320.342 42.499ZM314.919 46.2068L311.353 44.3932C309.722 47.5999 309.532 51.2856 310.259 55.1046L314.189 54.3563L318.118 53.608C317.605 50.9128 317.901 49.1656 318.484 48.0204L314.919 46.2068ZM314.189 54.3563L313.72 50.3838L300.298 51.9673L300.766 55.9398L301.235 59.9122L314.657 58.3287L314.189 54.3563ZM300.766 55.9398L304.668 55.0595C304.073 52.4231 304.057 49.9353 304.571 47.5522L300.661 46.7089L296.75 45.8657C295.976 49.4559 296.03 53.122 296.864 56.8201L300.766 55.9398ZM300.661 46.7089L304.571 47.5522C305.105 45.0753 306.043 43.0006 307.345 41.2585L304.14 38.8644L300.936 36.4703C298.886 39.2142 297.504 42.3692 296.75 45.8657L300.661 46.7089ZM304.14 38.8644L307.329 41.2799C308.701 39.469 310.427 37.9343 312.552 36.6781L310.517 33.2348L308.482 29.7914C305.508 31.5491 302.984 33.7676 300.952 36.4488L304.14 38.8644ZM310.517 33.2348L312.54 36.6853C314.629 35.4606 316.898 34.7003 319.387 34.4067L318.919 30.4343L318.45 26.4618C314.887 26.8821 311.555 27.9889 308.494 29.7842L310.517 33.2348ZM318.919 30.4343L319.387 34.4067C324.991 33.7456 329.31 34.7757 332.689 37.1312L334.976 33.8499L337.264 30.5685C331.957 26.8688 325.57 25.6218 318.45 26.4618L318.919 30.4343ZM334.976 33.8499L332.699 37.1386C336.069 39.4712 338.011 42.7059 338.541 47.196L342.513 46.7274L346.486 46.2587C345.704 39.628 342.622 34.2778 337.253 30.5611L334.976 33.8499ZM342.513 46.7274L338.541 47.196C338.872 50.0027 338.331 52.8755 336.736 55.9055L340.276 57.7687L343.816 59.6319C346.077 55.3367 347.027 50.8487 346.486 46.2587L342.513 46.7274ZM340.276 57.7687L336.733 55.9113C335.111 59.0065 332.233 62.6178 327.876 66.7393L330.624 69.6453L333.373 72.5513C338.074 68.1046 341.631 63.7982 343.819 59.6261L340.276 57.7687ZM330.624 69.6453L327.852 66.7619L320.858 73.4871L323.63 76.3705L326.402 79.2539L333.397 72.5287L330.624 69.6453ZM323.63 76.3705L324.099 80.343L346.094 77.748L345.626 73.7756L345.157 69.8031L323.161 72.3981L323.63 76.3705ZM345.626 73.7756L341.653 74.2442L343.077 86.309L347.049 85.8403L351.022 85.3717L349.598 73.3069L345.626 73.7756ZM347.049 85.8403L346.58 81.8679L304.722 86.8061L305.191 90.7785L305.66 94.751L347.518 89.8128L347.049 85.8403ZM365.553 82.9887L364.73 86.903L364.748 86.9067L364.765 86.9102L365.553 82.9887ZM352.76 74.9006L349.416 77.0963L349.426 77.1111L349.436 77.1258L352.76 74.9006ZM350.156 67.4985L349.687 63.526L345.752 63.9903L346.179 67.9296L350.156 67.4985ZM363.346 65.9424L367.152 64.7134L366.142 61.5848L362.877 61.97L363.346 65.9424ZM366.528 70.2476L364.389 73.6277L364.405 73.6375L364.42 73.6471L366.528 70.2476ZM377.447 68.4481L380.588 70.9257L377.447 68.4481ZM375.981 57.0178L373.645 60.2646L373.658 60.2743L373.672 60.284L375.981 57.0178ZM362.509 60.1805L362.977 64.1529L365.135 63.8984L366.096 61.9498L362.509 60.1805ZM350.677 61.5764L346.678 61.4669L346.552 66.0907L351.145 65.5488L350.677 61.5764ZM351.617 27.206L351.148 23.2336L347.713 23.6388L347.619 27.0966L351.617 27.206ZM385.794 23.174L389.767 22.7054L389.298 18.7329L385.326 19.2016L385.794 23.174ZM387.222 35.2776L387.691 39.25L391.663 38.7814L391.195 34.8089L387.222 35.2776ZM363.442 38.083L362.973 34.1106L359.644 34.5034L359.448 37.8501L363.442 38.083ZM362.804 49.0143L358.811 48.7813L358.148 60.1375L365.773 51.6953L362.804 49.0143ZM366.963 45.9276L365.199 42.3376L365.191 42.3417L365.182 42.3459L366.963 45.9276ZM386.316 47.9319L388.781 44.7823L386.316 47.9319ZM388.917 75.9843L391.971 78.5679L391.971 78.5672L388.917 75.9843ZM373.929 83.2986L373.46 79.3262C370.989 79.6176 368.623 79.5256 366.342 79.0671L365.553 82.9887L364.765 86.9102C367.91 87.5423 371.126 87.6569 374.397 87.2711L373.929 83.2986ZM365.553 82.9887L366.377 79.0743C364.061 78.5874 362.045 77.7981 360.29 76.7352L358.218 80.1567L356.146 83.5782C358.74 85.149 361.614 86.2476 364.73 86.903L365.553 82.9887ZM358.218 80.1567L360.29 76.7352C358.633 75.7318 357.235 74.3949 356.084 72.6754L352.76 74.9006L349.436 77.1258C351.213 79.7808 353.454 81.948 356.146 83.5782L358.218 80.1567ZM352.76 74.9006L356.103 72.7049C355.031 71.0727 354.366 69.2164 354.133 67.0673L350.156 67.4985L346.179 67.9296C346.541 71.2694 347.611 74.3479 349.416 77.0963L352.76 74.9006ZM350.156 67.4985L350.625 71.4709L363.814 69.9149L363.346 65.9424L362.877 61.97L349.687 63.526L350.156 67.4985ZM363.346 65.9424L359.539 67.1714C360.405 69.8537 361.991 72.1101 364.389 73.6277L366.528 70.2476L368.667 66.8675C368.062 66.4844 367.526 65.8707 367.152 64.7134L363.346 65.9424ZM366.528 70.2476L364.42 73.6471C366.846 75.1512 369.6 75.6044 372.431 75.2704L371.962 71.2979L371.494 67.3255C370.135 67.4857 369.266 67.2387 368.636 66.8481L366.528 70.2476ZM371.962 71.2979L372.431 75.2704C375.68 74.8871 378.547 73.5128 380.588 70.9257L377.447 68.4481L374.307 65.9706C373.793 66.6218 373.003 67.1473 371.494 67.3255L371.962 71.2979ZM377.447 68.4481L380.588 70.9257C382.639 68.325 383.335 65.2095 382.949 61.9384L378.977 62.407L375.004 62.8757C375.18 64.3633 374.856 65.2751 374.307 65.9706L377.447 68.4481ZM378.977 62.407L382.949 61.9384C382.556 58.607 381.066 55.7144 378.29 53.7516L375.981 57.0178L373.672 60.284C374.328 60.7481 374.836 61.4484 375.004 62.8757L378.977 62.407ZM375.981 57.0178L378.317 53.771C375.642 51.8458 372.467 51.2806 369.174 51.669L369.643 55.6415L370.112 59.6139C371.888 59.4044 372.939 59.7566 373.645 60.2646L375.981 57.0178ZM369.643 55.6415L369.174 51.669C364.668 52.2007 360.935 54.3272 358.921 58.4112L362.509 60.1805L366.096 61.9498C366.663 60.7995 367.687 59.9 370.112 59.6139L369.643 55.6415ZM362.509 60.1805L362.04 56.208L350.208 57.6039L350.677 61.5764L351.145 65.5488L362.977 64.1529L362.509 60.1805ZM350.677 61.5764L354.675 61.6858L355.616 27.3154L351.617 27.206L347.619 27.0966L346.678 61.4669L350.677 61.5764ZM351.617 27.206L352.086 31.1785L386.263 27.1465L385.794 23.174L385.326 19.2016L351.148 23.2336L351.617 27.206ZM385.794 23.174L381.822 23.6427L383.25 35.7462L387.222 35.2776L391.195 34.8089L389.767 22.7054L385.794 23.174ZM387.222 35.2776L386.753 31.3051L362.973 34.1106L363.442 38.083L363.91 42.0555L387.691 39.25L387.222 35.2776ZM363.442 38.083L359.448 37.8501L358.811 48.7813L362.804 49.0143L366.797 49.2473L367.435 38.316L363.442 38.083ZM362.804 49.0143L365.773 51.6953C366.513 50.8753 367.481 50.1371 368.744 49.5093L366.963 45.9276L365.182 42.3459C363.126 43.3684 361.321 44.688 359.835 46.3333L362.804 49.0143ZM366.963 45.9276L368.727 49.5176C370.001 48.8919 371.349 48.494 372.792 48.3237L372.323 44.3513L371.855 40.3788C369.522 40.654 367.297 41.307 365.199 42.3376L366.963 45.9276ZM372.323 44.3513L372.792 48.3237C377.335 47.7877 380.911 48.7805 383.85 51.0815L386.316 47.9319L388.781 44.7823C383.978 41.0216 378.225 39.6273 371.855 40.3788L372.323 44.3513ZM386.316 47.9319L383.85 51.0815C386.771 53.3685 388.583 56.6117 389.125 61.2098L393.097 60.7412L397.07 60.2725C396.313 53.8533 393.603 48.5569 388.781 44.7823L386.316 47.9319ZM393.097 60.7412L389.125 61.2098C389.723 66.2814 388.555 70.2175 385.863 73.4015L388.917 75.9843L391.971 78.5672C396.274 73.4788 397.893 67.2528 397.07 60.2725L393.097 60.7412ZM388.917 75.9843L385.863 73.4008C383.18 76.572 379.204 78.6485 373.46 79.3262L373.929 83.2986L374.397 87.2711C381.688 86.4109 387.704 83.6112 391.971 78.5679L388.917 75.9843Z" fill="black" mask="url(#path-1-outside-1_640_314)"/>
<mask id="path-3-outside-2_640_314" maskUnits="userSpaceOnUse" x="9.10436" y="9.69677" width="392.302" height="112.873" fill="black">
<rect fill="white" x="9.10436" y="9.69677" width="392.302" height="112.873"/>
<path d="M79.4529 93.4198C79.7436 89.2161 80.1217 84.5302 80.5871 79.3619L83.2162 51.6364L97.7638 49.9202L88.7733 109.076L73.1395 110.921L63.5101 85.3099C62.7016 83.124 61.9173 80.922 61.1575 78.7041C60.3976 76.4862 59.8455 74.8076 59.5014 73.6682L58.9508 72.0024C58.5247 76.1696 57.9754 80.8495 57.3032 86.0422L53.7428 113.209L38.4194 115.017L15.7544 59.5951L30.7674 57.824L39.9315 84.1582C40.6884 86.3503 41.4224 88.5713 42.1336 90.8211C42.8417 93.0451 43.355 94.7284 43.6733 95.8708L44.1508 97.5845C44.4157 93.3839 44.8067 88.6964 45.3238 83.5221L48.1081 55.7782L65.9531 53.673L75.1172 80.0072C75.874 82.1993 76.6081 84.4203 77.3193 86.6701C78.0533 88.8911 78.5924 90.5713 78.9366 91.7107L79.4529 93.4198ZM161.85 83.6991C162.141 79.4954 162.519 74.8095 162.984 69.6412L165.614 41.9157L180.161 40.1994L171.171 99.3555L155.537 101.2L145.907 75.5892C145.099 73.4032 144.315 71.2013 143.555 68.9834C142.795 66.7655 142.243 65.0868 141.899 63.9474L141.348 62.2817C140.922 66.4489 140.373 71.1288 139.7 76.3215L136.14 103.488L120.817 105.296L98.1517 49.8744L113.165 48.1033L122.329 74.4375C123.086 76.6296 123.82 78.8505 124.531 81.1004C125.239 83.3244 125.752 85.0077 126.071 86.1501L126.548 87.8638C126.813 83.6632 127.204 78.9757 127.721 73.8014L130.505 46.0575L148.35 43.9523L157.515 70.2865C158.271 72.4786 159.005 74.6995 159.717 76.9494C160.451 79.1704 160.99 80.8506 161.334 81.99L161.85 83.6991ZM191.615 96.9436L184.855 39.6457L204.873 37.2841C208.054 36.9089 211.121 36.901 214.074 37.2606C217.053 37.6172 219.912 38.4074 222.653 39.6312C225.39 40.8292 227.82 42.4175 229.941 44.3961C232.062 46.3747 233.855 48.9034 235.32 51.9822C236.781 55.0351 237.741 58.5012 238.199 62.3806C238.656 66.2599 238.533 69.8801 237.828 73.241C237.12 76.5761 235.965 79.4526 234.362 81.8706C232.759 84.2886 230.766 86.3986 228.383 88.2006C225.999 90.0027 223.401 91.4238 220.586 92.4638C217.798 93.5007 214.813 94.2068 211.632 94.5821L191.615 96.9436ZM208.609 82.6274C210.445 82.4108 212.147 82.0527 213.714 81.5532C215.303 81.0248 216.801 80.2712 218.206 79.2925C219.638 78.3108 220.825 77.148 221.768 75.8044C222.71 74.4607 223.391 72.7809 223.808 70.7649C224.252 68.7459 224.329 66.508 224.039 64.051C223.749 61.5941 223.155 59.4484 222.257 57.6139C221.385 55.7764 220.334 54.314 219.104 53.2266C217.871 52.1133 216.446 51.2588 214.829 50.6629C213.234 50.0381 211.604 49.6667 209.938 49.5486C208.295 49.4015 206.555 49.4363 204.719 49.6529L200.103 50.1976L203.993 83.172L208.609 82.6274ZM274.939 87.7429C271.758 88.1182 268.673 88.0888 265.685 87.6546C262.72 87.1916 259.927 86.3017 257.307 84.985C254.683 83.6425 252.345 81.9386 250.292 79.8732C248.262 77.7789 246.555 75.2008 245.171 72.1387C243.81 69.0477 242.908 65.6272 242.466 61.8772C242.024 58.1271 242.119 54.6021 242.752 51.302C243.412 47.9989 244.499 45.1042 246.015 42.6177C247.554 40.1024 249.444 37.8996 251.686 36.0094C253.951 34.0902 256.46 32.5749 259.213 31.4634C261.964 30.326 264.903 29.5728 268.033 29.2036C275.507 28.3218 281.915 29.5193 287.258 32.7962C292.597 36.0471 296.019 41.0453 297.523 47.7905L282.665 49.5434C281.715 46.8235 280.006 44.6781 277.54 43.1074C275.073 41.5366 272.353 40.9266 269.378 41.2775C265.163 41.7748 261.826 43.7156 259.367 47.1C256.905 50.4584 255.991 54.8273 256.626 60.2067C257.266 65.6378 259.162 69.7015 262.312 72.3979C265.488 75.0912 269.196 76.1877 273.438 75.6873C276.567 75.3181 279.113 74.1131 281.075 72.0724C283.037 70.0316 284.119 67.4259 284.322 64.2553L299.413 62.475C299.357 66.2312 298.685 69.6409 297.394 72.7038C296.126 75.7378 294.38 78.2775 292.157 80.323C289.959 82.3654 287.401 84.0176 284.482 85.2798C281.585 86.513 278.404 87.3341 274.939 87.7429ZM306.172 83.4289L304.849 72.2176L322.413 54.0582C325.052 51.3082 326.919 48.9114 328.015 46.8679C329.134 44.7954 329.587 42.854 329.374 41.0437C329.136 39.0264 328.271 37.4764 326.78 36.3937C325.288 35.3109 323.469 34.8962 321.323 35.1494C318.84 35.4423 317.032 36.6783 315.9 38.8572C314.793 41.0331 314.549 43.7496 315.17 47.0067L301.747 48.5902C301.033 45.4229 300.997 42.346 301.642 39.3593C302.286 36.3726 303.446 33.7578 305.121 31.5148C306.823 29.2687 308.949 27.3921 311.498 25.8851C314.073 24.3751 316.874 23.4416 319.9 23.0846C326.262 22.3341 331.614 23.4726 335.957 26.5003C340.326 29.5249 342.838 33.8174 343.494 39.3778C343.931 43.0761 343.185 46.7565 341.257 50.4191C339.352 54.0527 336.135 58.0116 331.605 62.2957L324.611 69.0209L346.607 66.426L348.03 78.4907L306.172 83.4289ZM374.91 75.949C372.039 76.2877 369.247 76.1843 366.534 75.6391C363.819 75.0679 361.373 74.1239 359.199 72.8071C357.024 71.4903 355.205 69.7383 353.741 67.551C352.302 65.3607 351.434 62.8933 351.137 60.1489L364.327 58.5928C364.946 60.5126 366.007 61.9476 367.509 62.898C369.037 63.8453 370.848 64.1954 372.943 63.9483C375.322 63.6676 377.151 62.7177 378.428 61.0985C379.729 59.4505 380.238 57.4368 379.958 55.0574C379.677 52.6781 378.678 50.8817 376.962 49.6682C375.271 48.4516 373.159 47.9929 370.624 48.2919C367.159 48.7007 364.78 50.2137 363.49 52.8309L351.658 54.2268L352.598 19.8564L386.775 15.8244L388.203 27.928L364.423 30.7334L363.785 41.6647C364.898 40.432 366.285 39.4031 367.944 38.578C369.63 37.7498 371.416 37.2244 373.304 37.0017C378.761 36.3579 383.425 37.5514 387.297 40.5823C391.168 43.6131 393.429 47.8829 394.078 53.3915C394.789 59.4175 393.396 64.4985 389.898 68.6347C386.423 72.742 381.427 75.1801 374.91 75.949Z"/>
</mask>
<path d="M79.4529 93.4198C79.7436 89.2161 80.1217 84.5302 80.5871 79.3619L83.2162 51.6364L97.7638 49.9202L88.7733 109.076L73.1395 110.921L63.5101 85.3099C62.7016 83.124 61.9173 80.922 61.1575 78.7041C60.3976 76.4862 59.8455 74.8076 59.5014 73.6682L58.9508 72.0024C58.5247 76.1696 57.9754 80.8495 57.3032 86.0422L53.7428 113.209L38.4194 115.017L15.7544 59.5951L30.7674 57.824L39.9315 84.1582C40.6884 86.3503 41.4224 88.5713 42.1336 90.8211C42.8417 93.0451 43.355 94.7284 43.6733 95.8708L44.1508 97.5845C44.4157 93.3839 44.8067 88.6964 45.3238 83.5221L48.1081 55.7782L65.9531 53.673L75.1172 80.0072C75.874 82.1993 76.6081 84.4203 77.3193 86.6701C78.0533 88.8911 78.5924 90.5713 78.9366 91.7107L79.4529 93.4198ZM161.85 83.6991C162.141 79.4954 162.519 74.8095 162.984 69.6412L165.614 41.9157L180.161 40.1994L171.171 99.3555L155.537 101.2L145.907 75.5892C145.099 73.4032 144.315 71.2013 143.555 68.9834C142.795 66.7655 142.243 65.0868 141.899 63.9474L141.348 62.2817C140.922 66.4489 140.373 71.1288 139.7 76.3215L136.14 103.488L120.817 105.296L98.1517 49.8744L113.165 48.1033L122.329 74.4375C123.086 76.6296 123.82 78.8505 124.531 81.1004C125.239 83.3244 125.752 85.0077 126.071 86.1501L126.548 87.8638C126.813 83.6632 127.204 78.9757 127.721 73.8014L130.505 46.0575L148.35 43.9523L157.515 70.2865C158.271 72.4786 159.005 74.6995 159.717 76.9494C160.451 79.1704 160.99 80.8506 161.334 81.99L161.85 83.6991ZM191.615 96.9436L184.855 39.6457L204.873 37.2841C208.054 36.9089 211.121 36.901 214.074 37.2606C217.053 37.6172 219.912 38.4074 222.653 39.6312C225.39 40.8292 227.82 42.4175 229.941 44.3961C232.062 46.3747 233.855 48.9034 235.32 51.9822C236.781 55.0351 237.741 58.5012 238.199 62.3806C238.656 66.2599 238.533 69.8801 237.828 73.241C237.12 76.5761 235.965 79.4526 234.362 81.8706C232.759 84.2886 230.766 86.3986 228.383 88.2006C225.999 90.0027 223.401 91.4238 220.586 92.4638C217.798 93.5007 214.813 94.2068 211.632 94.5821L191.615 96.9436ZM208.609 82.6274C210.445 82.4108 212.147 82.0527 213.714 81.5532C215.303 81.0248 216.801 80.2712 218.206 79.2925C219.638 78.3108 220.825 77.148 221.768 75.8044C222.71 74.4607 223.391 72.7809 223.808 70.7649C224.252 68.7459 224.329 66.508 224.039 64.051C223.749 61.5941 223.155 59.4484 222.257 57.6139C221.385 55.7764 220.334 54.314 219.104 53.2266C217.871 52.1133 216.446 51.2588 214.829 50.6629C213.234 50.0381 211.604 49.6667 209.938 49.5486C208.295 49.4015 206.555 49.4363 204.719 49.6529L200.103 50.1976L203.993 83.172L208.609 82.6274ZM274.939 87.7429C271.758 88.1182 268.673 88.0888 265.685 87.6546C262.72 87.1916 259.927 86.3017 257.307 84.985C254.683 83.6425 252.345 81.9386 250.292 79.8732C248.262 77.7789 246.555 75.2008 245.171 72.1387C243.81 69.0477 242.908 65.6272 242.466 61.8772C242.024 58.1271 242.119 54.6021 242.752 51.302C243.412 47.9989 244.499 45.1042 246.015 42.6177C247.554 40.1024 249.444 37.8996 251.686 36.0094C253.951 34.0902 256.46 32.5749 259.213 31.4634C261.964 30.326 264.903 29.5728 268.033 29.2036C275.507 28.3218 281.915 29.5193 287.258 32.7962C292.597 36.0471 296.019 41.0453 297.523 47.7905L282.665 49.5434C281.715 46.8235 280.006 44.6781 277.54 43.1074C275.073 41.5366 272.353 40.9266 269.378 41.2775C265.163 41.7748 261.826 43.7156 259.367 47.1C256.905 50.4584 255.991 54.8273 256.626 60.2067C257.266 65.6378 259.162 69.7015 262.312 72.3979C265.488 75.0912 269.196 76.1877 273.438 75.6873C276.567 75.3181 279.113 74.1131 281.075 72.0724C283.037 70.0316 284.119 67.4259 284.322 64.2553L299.413 62.475C299.357 66.2312 298.685 69.6409 297.394 72.7038C296.126 75.7378 294.38 78.2775 292.157 80.323C289.959 82.3654 287.401 84.0176 284.482 85.2798C281.585 86.513 278.404 87.3341 274.939 87.7429ZM306.172 83.4289L304.849 72.2176L322.413 54.0582C325.052 51.3082 326.919 48.9114 328.015 46.8679C329.134 44.7954 329.587 42.854 329.374 41.0437C329.136 39.0264 328.271 37.4764 326.78 36.3937C325.288 35.3109 323.469 34.8962 321.323 35.1494C318.84 35.4423 317.032 36.6783 315.9 38.8572C314.793 41.0331 314.549 43.7496 315.17 47.0067L301.747 48.5902C301.033 45.4229 300.997 42.346 301.642 39.3593C302.286 36.3726 303.446 33.7578 305.121 31.5148C306.823 29.2687 308.949 27.3921 311.498 25.8851C314.073 24.3751 316.874 23.4416 319.9 23.0846C326.262 22.3341 331.614 23.4726 335.957 26.5003C340.326 29.5249 342.838 33.8174 343.494 39.3778C343.931 43.0761 343.185 46.7565 341.257 50.4191C339.352 54.0527 336.135 58.0116 331.605 62.2957L324.611 69.0209L346.607 66.426L348.03 78.4907L306.172 83.4289ZM374.91 75.949C372.039 76.2877 369.247 76.1843 366.534 75.6391C363.819 75.0679 361.373 74.1239 359.199 72.8071C357.024 71.4903 355.205 69.7383 353.741 67.551C352.302 65.3607 351.434 62.8933 351.137 60.1489L364.327 58.5928C364.946 60.5126 366.007 61.9476 367.509 62.898C369.037 63.8453 370.848 64.1954 372.943 63.9483C375.322 63.6676 377.151 62.7177 378.428 61.0985C379.729 59.4505 380.238 57.4368 379.958 55.0574C379.677 52.6781 378.678 50.8817 376.962 49.6682C375.271 48.4516 373.159 47.9929 370.624 48.2919C367.159 48.7007 364.78 50.2137 363.49 52.8309L351.658 54.2268L352.598 19.8564L386.775 15.8244L388.203 27.928L364.423 30.7334L363.785 41.6647C364.898 40.432 366.285 39.4031 367.944 38.578C369.63 37.7498 371.416 37.2244 373.304 37.0017C378.761 36.3579 383.425 37.5514 387.297 40.5823C391.168 43.6131 393.429 47.8829 394.078 53.3915C394.789 59.4175 393.396 64.4985 389.898 68.6347C386.423 72.742 381.427 75.1801 374.91 75.949Z" fill="#FDFDFD"/>
<path d="M79.4529 93.4198L75.6238 94.5765L83.4434 93.6958L79.4529 93.4198ZM80.5871 79.3619L76.605 78.9843L76.6041 78.9938L76.6032 79.0032L80.5871 79.3619ZM83.2162 51.6364L82.7476 47.664L79.5391 48.0425L79.2341 51.2588L83.2162 51.6364ZM97.7638 49.9202L101.718 50.5212L102.507 45.3329L97.2951 45.9477L97.7638 49.9202ZM88.7733 109.076L89.2419 113.049L92.2698 112.691L92.7279 109.677L88.7733 109.076ZM73.1395 110.921L69.3954 112.328L70.4977 115.26L73.6082 114.893L73.1395 110.921ZM63.5101 85.3099L59.7585 86.6976L59.7622 86.7076L59.766 86.7177L63.5101 85.3099ZM59.5014 73.6682L63.3305 72.5114L63.3155 72.462L63.2993 72.413L59.5014 73.6682ZM58.9508 72.0024L62.7488 70.7472L54.9716 71.5955L58.9508 72.0024ZM57.3032 86.0422L61.2692 86.562L61.27 86.5558L57.3032 86.0422ZM53.7428 113.209L54.2114 117.181L57.3042 116.817L57.7089 113.729L53.7428 113.209ZM38.4194 115.017L34.717 116.531L35.868 119.345L38.888 118.989L38.4194 115.017ZM15.7544 59.5951L15.2857 55.6227L10.0604 56.2391L12.052 61.1092L15.7544 59.5951ZM30.7674 57.824L34.5452 56.5093L33.4894 53.4751L30.2988 53.8515L30.7674 57.824ZM39.9315 84.1582L43.7125 82.8528L43.7093 82.8436L39.9315 84.1582ZM42.1336 90.8211L38.3196 92.0268L38.3221 92.0347L42.1336 90.8211ZM43.6733 95.8708L39.8201 96.9445L43.6733 95.8708ZM44.1508 97.5845L40.2976 98.6582L48.1429 97.8362L44.1508 97.5845ZM45.3238 83.5221L41.3438 83.1227L41.3437 83.1243L45.3238 83.5221ZM48.1081 55.7782L47.6395 51.8058L44.4489 52.1822L44.1281 55.3788L48.1081 55.7782ZM65.9531 53.673L69.7309 52.3584L68.675 49.3241L65.4845 49.7005L65.9531 53.673ZM75.1172 80.0072L78.8982 78.7018L78.895 78.6926L75.1172 80.0072ZM77.3193 86.6701L73.5053 87.8758L73.5131 87.9006L73.5213 87.9253L77.3193 86.6701ZM78.9366 91.7107L75.1075 92.8674L78.9366 91.7107ZM79.4529 93.4198L83.4434 93.6958C83.7318 89.5252 84.1075 84.8674 84.571 79.7207L80.5871 79.3619L76.6032 79.0032C76.1359 84.193 75.7554 88.9071 75.4624 93.1438L79.4529 93.4198ZM80.5871 79.3619L84.5692 79.7396L87.1984 52.014L83.2162 51.6364L79.2341 51.2588L76.605 78.9843L80.5871 79.3619ZM83.2162 51.6364L83.6849 55.6089L98.2324 53.8926L97.7638 49.9202L97.2951 45.9477L82.7476 47.664L83.2162 51.6364ZM97.7638 49.9202L93.8092 49.3192L84.8187 108.475L88.7733 109.076L92.7279 109.677L101.718 50.5212L97.7638 49.9202ZM88.7733 109.076L88.3046 105.104L72.6709 106.948L73.1395 110.921L73.6082 114.893L89.2419 113.049L88.7733 109.076ZM73.1395 110.921L76.8836 109.513L67.2542 83.9022L63.5101 85.3099L59.766 86.7177L69.3954 112.328L73.1395 110.921ZM63.5101 85.3099L67.2617 83.9223C66.4644 81.7668 65.691 79.5952 64.9415 77.4077L61.1575 78.7041L57.3734 80.0006C58.1437 82.2489 58.9387 84.4812 59.7585 86.6976L63.5101 85.3099ZM61.1575 78.7041L64.9415 77.4077C64.1855 75.2009 63.6528 73.5784 63.3305 72.5114L59.5014 73.6682L55.6723 74.8249C56.0383 76.0367 56.6097 77.7716 57.3734 80.0006L61.1575 78.7041ZM59.5014 73.6682L63.2993 72.413L62.7488 70.7472L58.9508 72.0024L55.1529 73.2576L55.7034 74.9234L59.5014 73.6682ZM58.9508 72.0024L54.9716 71.5955C54.5498 75.7196 54.005 80.3631 53.3363 85.5286L57.3032 86.0422L61.27 86.5558C61.9459 81.336 62.4995 76.6196 62.9301 72.4094L58.9508 72.0024ZM57.3032 86.0422L53.3371 85.5224L49.7767 112.689L53.7428 113.209L57.7089 113.729L61.2692 86.562L57.3032 86.0422ZM53.7428 113.209L53.2741 109.236L37.9507 111.044L38.4194 115.017L38.888 118.989L54.2114 117.181L53.7428 113.209ZM38.4194 115.017L42.1217 113.503L19.4567 58.081L15.7544 59.5951L12.052 61.1092L34.717 116.531L38.4194 115.017ZM15.7544 59.5951L16.223 63.5676L31.2361 61.7964L30.7674 57.824L30.2988 53.8515L15.2857 55.6227L15.7544 59.5951ZM30.7674 57.824L26.9897 59.1386L36.1537 85.4729L39.9315 84.1582L43.7093 82.8436L34.5452 56.5093L30.7674 57.824ZM39.9315 84.1582L36.1506 85.4637C36.8957 87.622 37.6188 89.8097 38.3196 92.0268L42.1336 90.8211L45.9476 89.6155C45.226 87.3328 44.481 85.0786 43.7125 82.8528L39.9315 84.1582ZM42.1336 90.8211L38.3221 92.0347C39.0267 94.2476 39.522 95.8746 39.8201 96.9445L43.6733 95.8708L47.5265 94.7972C47.188 93.5822 46.6568 91.8427 45.945 89.6075L42.1336 90.8211ZM43.6733 95.8708L39.8201 96.9445L40.2976 98.6582L44.1508 97.5845L48.004 96.5108L47.5265 94.7972L43.6733 95.8708ZM44.1508 97.5845L48.1429 97.8362C48.4041 93.6941 48.7907 89.0564 49.304 83.9199L45.3238 83.5221L41.3437 83.1243C40.8228 88.3365 40.4273 93.0737 40.1588 97.3328L44.1508 97.5845ZM45.3238 83.5221L49.3038 83.9215L52.0881 56.1777L48.1081 55.7782L44.1281 55.3788L41.3438 83.1227L45.3238 83.5221ZM48.1081 55.7782L48.5768 59.7507L66.4218 57.6454L65.9531 53.673L65.4845 49.7005L47.6395 51.8058L48.1081 55.7782ZM65.9531 53.673L62.1753 54.9876L71.3394 81.3219L75.1172 80.0072L78.895 78.6926L69.7309 52.3584L65.9531 53.673ZM75.1172 80.0072L71.3362 81.3127C72.0814 83.471 72.8045 85.6587 73.5053 87.8758L77.3193 86.6701L81.1333 85.4645C80.4117 83.1818 79.6667 80.9276 78.8982 78.7018L75.1172 80.0072ZM77.3193 86.6701L73.5213 87.9253C74.2527 90.1384 74.7787 91.7789 75.1075 92.8674L78.9366 91.7107L82.7657 90.554C82.4061 89.3636 81.8539 87.6438 81.1172 85.4149L77.3193 86.6701ZM78.9366 91.7107L75.1075 92.8674L75.6238 94.5765L79.4529 93.4198L83.282 92.2631L82.7657 90.554L78.9366 91.7107ZM161.85 83.6991L158.021 84.8558L165.841 83.9751L161.85 83.6991ZM162.984 69.6412L159.002 69.2636L159.001 69.273L159.001 69.2825L162.984 69.6412ZM165.614 41.9157L165.145 37.9432L161.936 38.3217L161.631 41.5381L165.614 41.9157ZM180.161 40.1994L184.116 40.8005L184.904 35.6121L179.692 36.227L180.161 40.1994ZM171.171 99.3555L171.639 103.328L174.667 102.971L175.125 99.9565L171.171 99.3555ZM155.537 101.2L151.793 102.608L152.895 105.539L156.005 105.172L155.537 101.2ZM145.907 75.5892L142.156 76.9769L142.16 76.9869L142.163 76.9969L145.907 75.5892ZM141.899 63.9474L145.728 62.7907L145.713 62.7413L145.697 62.6922L141.899 63.9474ZM141.348 62.2817L145.146 61.0265L137.369 61.8748L141.348 62.2817ZM139.7 76.3215L143.667 76.8412L143.667 76.8351L139.7 76.3215ZM136.14 103.488L136.609 107.461L139.702 107.096L140.106 104.008L136.14 103.488ZM120.817 105.296L117.114 106.81L118.265 109.625L121.285 109.268L120.817 105.296ZM98.1517 49.8744L97.6831 45.902L92.4577 46.5184L94.4493 51.3885L98.1517 49.8744ZM113.165 48.1033L116.943 46.7886L115.887 43.7544L112.696 44.1308L113.165 48.1033ZM122.329 74.4375L126.11 73.1321L126.107 73.1229L122.329 74.4375ZM124.531 81.1004L120.717 82.306L120.719 82.314L124.531 81.1004ZM126.071 86.1501L122.217 87.2238L126.071 86.1501ZM126.548 87.8638L122.695 88.9374L130.54 88.1155L126.548 87.8638ZM127.721 73.8014L123.741 73.4019L123.741 73.4036L127.721 73.8014ZM130.505 46.0575L130.037 42.0851L126.846 42.4615L126.525 45.6581L130.505 46.0575ZM148.35 43.9523L152.128 42.6376L151.072 39.6034L147.882 39.9798L148.35 43.9523ZM157.515 70.2865L161.296 68.9811L161.292 68.9719L157.515 70.2865ZM159.717 76.9494L155.903 78.155L155.91 78.1799L155.919 78.2046L159.717 76.9494ZM161.334 81.99L157.505 83.1467L161.334 81.99ZM161.85 83.6991L165.841 83.9751C166.129 79.8044 166.505 75.1467 166.968 70L162.984 69.6412L159.001 69.2825C158.533 74.4723 158.153 79.1864 157.86 83.423L161.85 83.6991ZM162.984 69.6412L166.967 70.0188L169.596 42.2933L165.614 41.9157L161.631 41.5381L159.002 69.2636L162.984 69.6412ZM165.614 41.9157L166.082 45.8881L180.63 44.1719L180.161 40.1994L179.692 36.227L165.145 37.9432L165.614 41.9157ZM180.161 40.1994L176.207 39.5984L167.216 98.7545L171.171 99.3555L175.125 99.9565L184.116 40.8005L180.161 40.1994ZM171.171 99.3555L170.702 95.3831L155.068 97.2274L155.537 101.2L156.005 105.172L171.639 103.328L171.171 99.3555ZM155.537 101.2L159.281 99.7921L149.652 74.1815L145.907 75.5892L142.163 76.9969L151.793 102.608L155.537 101.2ZM145.907 75.5892L149.659 74.2015C148.862 72.046 148.088 69.8745 147.339 67.6869L143.555 68.9834L139.771 70.2799C140.541 72.5281 141.336 74.7605 142.156 76.9769L145.907 75.5892ZM143.555 68.9834L147.339 67.6869C146.583 65.4802 146.05 63.8577 145.728 62.7907L141.899 63.9474L138.07 65.1042C138.436 66.316 139.007 68.0508 139.771 70.2799L143.555 68.9834ZM141.899 63.9474L145.697 62.6922L145.146 61.0265L141.348 62.2817L137.55 63.5369L138.101 65.2026L141.899 63.9474ZM141.348 62.2817L137.369 61.8748C136.947 65.9989 136.402 70.6424 135.734 75.8079L139.7 76.3215L143.667 76.8351C144.343 71.6152 144.897 66.8989 145.327 62.6887L141.348 62.2817ZM139.7 76.3215L135.734 75.8017L132.174 102.968L136.14 103.488L140.106 104.008L143.667 76.8412L139.7 76.3215ZM136.14 103.488L135.671 99.5157L120.348 101.324L120.817 105.296L121.285 109.268L136.609 107.461L136.14 103.488ZM120.817 105.296L124.519 103.782L101.854 48.3603L98.1517 49.8744L94.4493 51.3885L117.114 106.81L120.817 105.296ZM98.1517 49.8744L98.6204 53.8469L113.633 52.0757L113.165 48.1033L112.696 44.1308L97.6831 45.902L98.1517 49.8744ZM113.165 48.1033L109.387 49.4179L118.551 75.7522L122.329 74.4375L126.107 73.1229L116.943 46.7886L113.165 48.1033ZM122.329 74.4375L118.548 75.7429C119.293 77.9013 120.016 80.089 120.717 82.306L124.531 81.1004L128.345 79.8948C127.623 77.6121 126.878 75.3578 126.11 73.1321L122.329 74.4375ZM124.531 81.1004L120.719 82.314C121.424 84.5268 121.919 86.1538 122.217 87.2238L126.071 86.1501L129.924 85.0764C129.585 83.8615 129.054 82.122 128.342 79.8868L124.531 81.1004ZM126.071 86.1501L122.217 87.2238L122.695 88.9374L126.548 87.8638L130.401 86.7901L129.924 85.0764L126.071 86.1501ZM126.548 87.8638L130.54 88.1155C130.801 83.9734 131.188 79.3357 131.701 74.1991L127.721 73.8014L123.741 73.4036C123.22 78.6158 122.825 83.353 122.556 87.612L126.548 87.8638ZM127.721 73.8014L131.701 74.2008L134.485 46.4569L130.505 46.0575L126.525 45.6581L123.741 73.4019L127.721 73.8014ZM130.505 46.0575L130.974 50.03L148.819 47.9247L148.35 43.9523L147.882 39.9798L130.037 42.0851L130.505 46.0575ZM148.35 43.9523L144.573 45.2669L153.737 71.6012L157.515 70.2865L161.292 68.9719L152.128 42.6376L148.35 43.9523ZM157.515 70.2865L153.734 71.5919C154.479 73.7503 155.202 75.938 155.903 78.155L159.717 76.9494L163.531 75.7438C162.809 73.4611 162.064 71.2068 161.296 68.9811L157.515 70.2865ZM159.717 76.9494L155.919 78.2046C156.65 80.4176 157.176 82.0582 157.505 83.1467L161.334 81.99L165.163 80.8332C164.803 79.6429 164.251 77.9231 163.515 75.6942L159.717 76.9494ZM161.334 81.99L157.505 83.1467L158.021 84.8558L161.85 83.6991L165.679 82.5423L165.163 80.8332L161.334 81.99ZM191.615 96.9436L187.642 97.4123L188.111 101.385L192.083 100.916L191.615 96.9436ZM184.855 39.6457L184.386 35.6732L180.414 36.1419L180.883 40.1143L184.855 39.6457ZM214.074 37.2606L213.59 41.2313L213.598 41.2323L214.074 37.2606ZM222.653 39.6312L221.022 43.2836L221.035 43.2897L221.049 43.2957L222.653 39.6312ZM235.32 51.9822L231.708 53.7005L231.712 53.7094L235.32 51.9822ZM237.828 73.241L241.741 74.0715L241.743 74.062L237.828 73.241ZM228.383 88.2006L225.97 85.01L228.383 88.2006ZM220.586 92.4638L219.2 88.7118L219.192 88.7146L220.586 92.4638ZM213.714 81.5532L214.929 85.3642L214.952 85.3567L214.976 85.349L213.714 81.5532ZM218.206 79.2925L215.944 75.9939L215.932 76.0019L215.921 76.01L218.206 79.2925ZM223.808 70.7649L219.902 69.9066L219.896 69.9299L219.892 69.9533L223.808 70.7649ZM222.257 57.6139L218.643 59.3294L218.654 59.3512L218.664 59.3729L222.257 57.6139ZM219.104 53.2266L216.423 56.1951L216.439 56.2091L216.454 56.223L219.104 53.2266ZM214.829 50.6629L213.37 54.3873L213.408 54.4022L213.446 54.4163L214.829 50.6629ZM209.938 49.5486L209.582 53.5326L209.618 53.5359L209.655 53.5385L209.938 49.5486ZM200.103 50.1976L199.634 46.2251L195.662 46.6937L196.13 50.6662L200.103 50.1976ZM203.993 83.172L200.02 83.6407L200.489 87.6131L204.461 87.1445L203.993 83.172ZM191.615 96.9436L195.587 96.475L188.828 39.177L184.855 39.6457L180.883 40.1143L187.642 97.4123L191.615 96.9436ZM184.855 39.6457L185.324 43.6181L205.341 41.2566L204.873 37.2841L204.404 33.3117L184.386 35.6732L184.855 39.6457ZM204.873 37.2841L205.341 41.2566C208.23 40.9158 210.977 40.913 213.59 41.2313L214.074 37.2606L214.557 33.29C211.265 32.889 207.877 32.9019 204.404 33.3117L204.873 37.2841ZM214.074 37.2606L213.598 41.2323C216.178 41.5411 218.648 42.2236 221.022 43.2836L222.653 39.6312L224.284 35.9789C221.177 34.5912 217.927 33.6933 214.549 33.289L214.074 37.2606ZM222.653 39.6312L221.049 43.2957C223.385 44.318 225.432 45.66 227.213 47.3213L229.941 44.3961L232.669 41.4709C230.207 39.1749 227.395 37.3404 224.257 35.9668L222.653 39.6312ZM229.941 44.3961L227.213 47.3213C228.908 48.9022 230.422 50.9978 231.708 53.7005L235.32 51.9822L238.932 50.2639C237.289 46.809 235.217 43.8472 232.669 41.4709L229.941 44.3961ZM235.32 51.9822L231.712 53.7094C232.957 56.3098 233.812 59.3405 234.226 62.8492L238.199 62.3806L242.171 61.9119C241.67 57.6619 240.606 53.7604 238.928 50.255L235.32 51.9822ZM238.199 62.3806L234.226 62.8492C234.64 66.3567 234.518 69.5368 233.913 72.42L237.828 73.241L241.743 74.062C242.548 70.2233 242.673 66.1632 242.171 61.9119L238.199 62.3806ZM237.828 73.241L233.915 72.4105C233.294 75.3382 232.309 77.7286 231.028 79.6606L234.362 81.8706L237.696 84.0806C239.621 81.1766 240.946 77.814 241.741 74.0715L237.828 73.241ZM234.362 81.8706L231.028 79.6606C229.682 81.6907 228.004 83.4721 225.97 85.01L228.383 88.2006L230.795 91.3913C233.528 89.325 235.836 86.8864 237.696 84.0806L234.362 81.8706ZM228.383 88.2006L225.97 85.01C223.901 86.5747 221.648 87.807 219.2 88.7118L220.586 92.4638L221.973 96.2157C225.153 95.0405 228.098 93.4307 230.795 91.3913L228.383 88.2006ZM220.586 92.4638L219.192 88.7146C216.724 89.6324 214.052 90.2689 211.164 90.6097L211.632 94.5821L212.101 98.5546C215.574 98.1448 218.872 97.369 221.981 96.2129L220.586 92.4638ZM211.632 94.5821L211.164 90.6097L191.146 92.9712L191.615 96.9436L192.083 100.916L212.101 98.5546L211.632 94.5821ZM208.609 82.6274L209.078 86.5998C211.137 86.357 213.091 85.9501 214.929 85.3642L213.714 81.5532L212.499 77.7422C211.203 78.1553 209.754 78.4646 208.141 78.6549L208.609 82.6274ZM213.714 81.5532L214.976 85.349C216.938 84.6968 218.779 83.7681 220.492 82.575L218.206 79.2925L215.921 76.01C214.823 76.7743 213.669 77.3527 212.452 77.7574L213.714 81.5532ZM218.206 79.2925L220.469 82.5911C222.272 81.3545 223.809 79.8591 225.042 78.1019L221.768 75.8044L218.493 73.5068C217.841 74.437 217.004 75.267 215.944 75.9939L218.206 79.2925ZM221.768 75.8044L225.042 78.1019C226.367 76.2139 227.224 73.9952 227.725 71.5765L223.808 70.7649L219.892 69.9533C219.557 71.5666 219.054 72.7075 218.493 73.5068L221.768 75.8044ZM223.808 70.7649L227.715 71.6233C228.271 69.0926 228.344 66.3976 228.011 63.5824L224.039 64.051L220.067 64.5197C220.314 66.6184 220.233 68.3993 219.902 69.9066L223.808 70.7649ZM224.039 64.051L228.011 63.5824C227.68 60.7687 226.983 58.1704 225.849 55.855L222.257 57.6139L218.664 59.3729C219.327 60.7264 219.819 62.4195 220.067 64.5197L224.039 64.051ZM222.257 57.6139L225.87 55.8985C224.82 53.6865 223.472 51.7497 221.754 50.2302L219.104 53.2266L216.454 56.223C217.195 56.8782 217.949 57.8663 218.643 59.3294L222.257 57.6139ZM219.104 53.2266L221.785 50.258C220.159 48.7898 218.29 47.675 216.212 46.9095L214.829 50.6629L213.446 54.4163C214.603 54.8425 215.583 55.4368 216.423 56.1951L219.104 53.2266ZM214.829 50.6629L216.288 46.9386C214.327 46.1701 212.3 45.706 210.221 45.5586L209.938 49.5486L209.655 53.5385C210.908 53.6274 212.142 53.9062 213.37 54.3873L214.829 50.6629ZM209.938 49.5486L210.295 45.5645C208.346 45.3901 206.328 45.4354 204.25 45.6805L204.719 49.6529L205.188 53.6254C206.782 53.4373 208.244 53.4129 209.582 53.5326L209.938 49.5486ZM204.719 49.6529L204.25 45.6805L199.634 46.2251L200.103 50.1976L200.571 54.17L205.188 53.6254L204.719 49.6529ZM200.103 50.1976L196.13 50.6662L200.02 83.6407L203.993 83.172L207.965 82.7034L204.075 49.7289L200.103 50.1976ZM203.993 83.172L204.461 87.1445L209.078 86.5998L208.609 82.6274L208.141 78.6549L203.524 79.1996L203.993 83.172ZM265.685 87.6546L265.068 91.6067L265.089 91.61L265.11 91.6131L265.685 87.6546ZM257.307 84.985L255.484 88.5458L255.498 88.5525L255.511 88.5592L257.307 84.985ZM250.292 79.8732L247.42 82.6574L247.438 82.6754L247.455 82.6931L250.292 79.8732ZM245.171 72.1387L241.51 73.7507L241.518 73.7684L241.526 73.7861L245.171 72.1387ZM242.752 51.302L238.83 50.5192L238.827 50.5336L238.824 50.5481L242.752 51.302ZM246.015 42.6177L242.603 40.5303L242.6 40.5354L246.015 42.6177ZM251.686 36.0094L254.265 39.0674L254.272 39.061L251.686 36.0094ZM259.213 31.4634L260.711 35.1725L260.726 35.1662L260.742 35.1598L259.213 31.4634ZM287.258 32.7962L285.167 36.2059L285.178 36.2127L287.258 32.7962ZM297.523 47.7905L297.991 51.763L302.391 51.244L301.427 46.9202L297.523 47.7905ZM282.665 49.5434L278.889 50.8626L279.947 53.8918L283.134 53.5158L282.665 49.5434ZM259.367 47.1L262.593 49.4649L262.598 49.458L262.603 49.4512L259.367 47.1ZM262.312 72.3979L259.711 75.4367L259.718 75.4427L259.725 75.4486L262.312 72.3979ZM284.322 64.2553L283.853 60.2828L280.543 60.6734L280.33 63.9999L284.322 64.2553ZM299.413 62.475L303.412 62.5336L303.479 57.9675L298.944 58.5025L299.413 62.475ZM297.394 72.7038L293.708 71.1505L293.703 71.1615L297.394 72.7038ZM292.157 80.323L289.449 77.3791L289.441 77.386L289.434 77.3929L292.157 80.323ZM284.482 85.2798L286.049 88.9601L286.059 88.9557L286.069 88.9513L284.482 85.2798ZM274.939 87.7429L274.47 83.7705C271.615 84.1073 268.882 84.0771 266.26 83.6962L265.685 87.6546L265.11 91.6131C268.464 92.1004 271.9 92.1291 275.407 91.7154L274.939 87.7429ZM265.685 87.6546L266.302 83.7025C263.737 83.302 261.343 82.5368 259.103 81.4109L257.307 84.985L255.511 88.5592C258.511 90.0666 261.702 91.0811 265.068 91.6067L265.685 87.6546ZM257.307 84.985L259.129 81.4243C256.876 80.2714 254.882 78.8162 253.129 77.0533L250.292 79.8732L247.455 82.6931C249.809 85.0609 252.491 87.0136 255.484 88.5458L257.307 84.985ZM250.292 79.8732L253.164 77.0891C251.5 75.3725 250.038 73.1956 248.816 70.4913L245.171 72.1387L241.526 73.7861C243.072 77.2059 245.024 80.1854 247.42 82.6574L250.292 79.8732ZM245.171 72.1387L248.832 70.5267C247.649 67.8393 246.84 64.81 246.438 61.4085L242.466 61.8772L238.493 62.3458C238.977 66.4444 239.972 70.2561 241.51 73.7507L245.171 72.1387ZM242.466 61.8772L246.438 61.4085C246.038 58.0161 246.134 54.9068 246.681 52.0559L242.752 51.302L238.824 50.5481C238.104 54.2974 238.009 58.2381 238.493 62.3458L242.466 61.8772ZM242.752 51.302L246.675 52.0849C247.257 49.1705 248.193 46.7291 249.43 44.7001L246.015 42.6177L242.6 40.5354C240.805 43.4792 239.566 46.8273 238.83 50.5192L242.752 51.302ZM246.015 42.6177L249.427 44.7052C250.743 42.554 252.353 40.6794 254.265 39.0674L251.686 36.0094L249.108 32.9513C246.536 35.1198 244.365 37.6509 242.603 40.5303L246.015 42.6177ZM251.686 36.0094L254.272 39.061C256.211 37.4177 258.353 36.1243 260.711 35.1725L259.213 31.4634L257.716 27.7542C254.567 29.0254 251.69 30.7627 249.1 32.9577L251.686 36.0094ZM259.213 31.4634L260.742 35.1598C263.134 34.1706 265.715 33.5048 268.501 33.176L268.033 29.2036L267.564 25.2311C264.092 25.6408 260.793 26.4814 257.685 27.767L259.213 31.4634ZM268.033 29.2036L268.501 33.176C275.269 32.3777 280.735 33.4879 285.167 36.2059L287.258 32.7962L289.349 29.3864C283.095 25.5508 275.745 24.266 267.564 25.2311L268.033 29.2036ZM287.258 32.7962L285.178 36.2127C289.486 38.8356 292.324 42.8534 293.619 48.6609L297.523 47.7905L301.427 46.9202C299.714 39.2371 295.709 33.2587 289.338 29.3796L287.258 32.7962ZM297.523 47.7905L297.054 43.8181L282.196 45.5709L282.665 49.5434L283.134 53.5158L297.991 51.763L297.523 47.7905ZM282.665 49.5434L286.441 48.2242C285.19 44.6423 282.9 41.779 279.688 39.7334L277.54 43.1074L275.391 46.4813C277.112 47.5773 278.24 49.0047 278.889 50.8626L282.665 49.5434ZM277.54 43.1074L279.688 39.7334C276.424 37.6547 272.775 36.849 268.91 37.305L269.378 41.2775L269.847 45.2499C271.93 45.0042 273.722 45.4184 275.391 46.4813L277.54 43.1074ZM269.378 41.2775L268.91 37.305C263.605 37.9309 259.256 40.4467 256.131 44.7488L259.367 47.1L262.603 49.4512C264.395 46.9846 266.721 45.6187 269.847 45.2499L269.378 41.2775ZM259.367 47.1L256.141 44.735C252.918 49.1316 251.937 54.6027 252.653 60.6753L256.626 60.2067L260.598 59.738C260.045 55.052 260.892 51.7852 262.593 49.4649L259.367 47.1ZM256.626 60.2067L252.653 60.6753C253.373 66.7788 255.579 71.9002 259.711 75.4367L262.312 72.3979L264.913 69.3591C262.744 67.5028 261.159 64.4968 260.598 59.738L256.626 60.2067ZM262.312 72.3979L259.725 75.4486C263.771 78.8804 268.595 80.2864 273.907 79.6598L273.438 75.6873L272.969 71.7149C269.798 72.089 267.204 71.302 264.899 69.3472L262.312 72.3979ZM273.438 75.6873L273.907 79.6598C277.845 79.1951 281.281 77.629 283.958 74.8445L281.075 72.0724L278.191 69.3002C276.944 70.5973 275.29 71.4411 272.969 71.7149L273.438 75.6873ZM281.075 72.0724L283.958 74.8445C286.656 72.0383 288.058 68.5018 288.314 64.5106L284.322 64.2553L280.33 63.9999C280.18 66.3499 279.417 68.0249 278.191 69.3002L281.075 72.0724ZM284.322 64.2553L284.791 68.2277L299.881 66.4474L299.413 62.475L298.944 58.5025L283.853 60.2828L284.322 64.2553ZM299.413 62.475L295.413 62.4163C295.364 65.7255 294.775 68.6188 293.708 71.1505L297.394 72.7038L301.08 74.257C302.595 70.6629 303.35 66.737 303.412 62.5336L299.413 62.475ZM297.394 72.7038L293.703 71.1615C292.638 73.7106 291.211 75.758 289.449 77.3791L292.157 80.323L294.865 83.2669C297.55 80.7971 299.614 77.765 301.085 74.2461L297.394 72.7038ZM292.157 80.323L289.434 77.3929C287.589 79.1071 285.42 80.5159 282.894 81.6083L284.482 85.2798L286.069 88.9513C289.381 87.5193 292.329 85.6236 294.88 83.2531L292.157 80.323ZM284.482 85.2798L282.914 81.5995C280.404 82.6684 277.598 83.4015 274.47 83.7705L274.939 87.7429L275.407 91.7154C279.211 91.2667 282.766 90.3577 286.049 88.9601L284.482 85.2798ZM306.172 83.4289L302.199 83.8975L302.668 87.87L306.641 87.4014L306.172 83.4289ZM304.849 72.2176L301.974 69.4367L300.654 70.8011L300.877 72.6862L304.849 72.2176ZM322.413 54.0582L325.288 56.8391L325.294 56.8333L325.299 56.8276L322.413 54.0582ZM328.015 46.8679L324.496 44.9674L324.491 44.977L328.015 46.8679ZM315.9 38.8572L312.351 37.0123L312.342 37.0279L312.334 37.0436L315.9 38.8572ZM315.17 47.0067L315.638 50.9791L319.902 50.4761L319.099 46.2584L315.17 47.0067ZM301.747 48.5902L297.845 49.4705L298.638 52.9847L302.216 52.5626L301.747 48.5902ZM305.121 31.5148L301.933 29.0992L301.925 29.1099L301.917 29.1207L305.121 31.5148ZM311.498 25.8851L309.475 22.4346L309.462 22.4418L311.498 25.8851ZM335.957 26.5003L333.67 29.7816L333.68 29.789L335.957 26.5003ZM341.257 50.4191L337.717 48.5559L337.714 48.5617L341.257 50.4191ZM331.605 62.2957L328.857 59.3897L328.845 59.401L328.833 59.4123L331.605 62.2957ZM324.611 69.0209L321.838 66.1375L313.257 74.3881L325.079 72.9934L324.611 69.0209ZM346.607 66.426L350.579 65.9573L350.111 61.9849L346.138 62.4535L346.607 66.426ZM348.03 78.4907L348.499 82.4632L352.471 81.9945L352.003 78.0221L348.03 78.4907ZM306.172 83.4289L310.144 82.9603L308.822 71.7489L304.849 72.2176L300.877 72.6862L302.199 83.8975L306.172 83.4289ZM304.849 72.2176L307.724 74.9985L325.288 56.8391L322.413 54.0582L319.538 51.2773L301.974 69.4367L304.849 72.2176ZM322.413 54.0582L325.299 56.8276C328.05 53.9604 330.198 51.2618 331.54 48.7588L328.015 46.8679L324.491 44.977C323.641 46.5611 322.053 48.656 319.527 51.2887L322.413 54.0582ZM328.015 46.8679L331.535 48.7684C332.931 46.1824 333.681 43.4123 333.346 40.575L329.374 41.0437L325.401 41.5123C325.494 42.2958 325.337 43.4085 324.496 44.9674L328.015 46.8679ZM329.374 41.0437L333.346 40.575C332.992 37.5751 331.622 34.9665 329.13 33.1568L326.78 36.3937L324.43 39.6305C324.92 39.9863 325.279 40.4777 325.401 41.5123L329.374 41.0437ZM326.78 36.3937L329.13 33.1568C326.686 31.3829 323.816 30.8276 320.854 31.177L321.323 35.1494L321.792 39.1219C323.123 38.9648 323.89 39.239 324.43 39.6305L326.78 36.3937ZM321.323 35.1494L320.854 31.177C317.084 31.6217 314.107 33.6325 312.351 37.0123L315.9 38.8572L319.449 40.7022C319.957 39.724 320.596 39.2629 321.792 39.1219L321.323 35.1494ZM315.9 38.8572L312.334 37.0436C310.703 40.2503 310.513 43.936 311.24 47.755L315.17 47.0067L319.099 46.2584C318.586 43.5632 318.882 41.816 319.465 40.6708L315.9 38.8572ZM315.17 47.0067L314.701 43.0342L301.279 44.6177L301.747 48.5902L302.216 52.5626L315.638 50.9791L315.17 47.0067ZM301.747 48.5902L305.649 47.7099C305.054 45.0735 305.038 42.5857 305.552 40.2025L301.642 39.3593L297.731 38.5161C296.957 42.1062 297.011 45.7724 297.845 49.4705L301.747 48.5902ZM301.642 39.3593L305.552 40.2025C306.086 37.7257 307.024 35.651 308.326 33.9089L305.121 31.5148L301.917 29.1207C299.867 31.8646 298.485 35.0196 297.731 38.5161L301.642 39.3593ZM305.121 31.5148L308.31 33.9303C309.682 32.1193 311.408 30.5847 313.533 29.3285L311.498 25.8851L309.462 22.4418C306.489 24.1995 303.964 26.418 301.933 29.0992L305.121 31.5148ZM311.498 25.8851L313.521 29.3357C315.61 28.111 317.879 27.3507 320.368 27.0571L319.9 23.0846L319.431 19.1122C315.868 19.5325 312.536 20.6392 309.475 22.4346L311.498 25.8851ZM319.9 23.0846L320.368 27.0571C325.972 26.396 330.291 27.426 333.67 29.7816L335.957 26.5003L338.245 23.2189C332.938 19.5192 326.551 18.2722 319.431 19.1122L319.9 23.0846ZM335.957 26.5003L333.68 29.789C337.05 32.1216 338.992 35.3563 339.522 39.8464L343.494 39.3778L347.467 38.9091C346.685 32.2784 343.603 26.9281 338.234 23.2115L335.957 26.5003ZM343.494 39.3778L339.522 39.8464C339.853 42.6531 339.312 45.5259 337.717 48.5559L341.257 50.4191L344.797 52.2822C347.057 47.9871 348.008 43.499 347.467 38.9091L343.494 39.3778ZM341.257 50.4191L337.714 48.5617C336.092 51.6569 333.214 55.2682 328.857 59.3897L331.605 62.2957L334.354 65.2017C339.055 60.755 342.612 56.4486 344.8 52.2765L341.257 50.4191ZM331.605 62.2957L328.833 59.4123L321.838 66.1375L324.611 69.0209L327.383 71.9043L334.378 65.1791L331.605 62.2957ZM324.611 69.0209L325.079 72.9934L347.075 70.3984L346.607 66.426L346.138 62.4535L324.142 65.0485L324.611 69.0209ZM346.607 66.426L342.634 66.8946L344.058 78.9594L348.03 78.4907L352.003 78.0221L350.579 65.9573L346.607 66.426ZM348.03 78.4907L347.561 74.5183L305.703 79.4565L306.172 83.4289L306.641 87.4014L348.499 82.4632L348.03 78.4907ZM366.534 75.6391L365.711 79.5534L365.729 79.5571L365.746 79.5606L366.534 75.6391ZM353.741 67.551L350.397 69.7467L350.407 69.7615L350.417 69.7762L353.741 67.551ZM351.137 60.1489L350.668 56.1764L346.733 56.6406L347.16 60.58L351.137 60.1489ZM364.327 58.5928L368.133 57.3638L367.123 54.2352L363.858 54.6204L364.327 58.5928ZM367.509 62.898L365.37 66.2781L365.386 66.2879L365.401 66.2975L367.509 62.898ZM378.428 61.0985L381.569 63.5761L378.428 61.0985ZM376.962 49.6682L374.625 52.915L374.639 52.9247L374.653 52.9344L376.962 49.6682ZM363.49 52.8309L363.958 56.8033L366.116 56.5488L367.077 54.6002L363.49 52.8309ZM351.658 54.2268L347.659 54.1173L347.533 58.7411L352.126 58.1992L351.658 54.2268ZM352.598 19.8564L352.129 15.884L348.694 16.2892L348.6 19.747L352.598 19.8564ZM386.775 15.8244L390.748 15.3558L390.279 11.3833L386.307 11.852L386.775 15.8244ZM388.203 27.928L388.672 31.9004L392.644 31.4318L392.176 27.4593L388.203 27.928ZM364.423 30.7334L363.954 26.761L360.625 27.1538L360.429 30.5005L364.423 30.7334ZM363.785 41.6647L359.792 41.4317L359.129 52.7879L366.754 44.3457L363.785 41.6647ZM367.944 38.578L366.18 34.988L366.172 34.9921L366.163 34.9963L367.944 38.578ZM387.297 40.5823L389.762 37.4327L387.297 40.5823ZM389.898 68.6347L392.952 71.2183L392.952 71.2176L389.898 68.6347ZM374.91 75.949L374.441 71.9765C371.97 72.268 369.603 72.176 367.323 71.7175L366.534 75.6391L365.746 79.5606C368.891 80.1927 372.107 80.3073 375.378 79.9214L374.91 75.949ZM366.534 75.6391L367.358 71.7247C365.042 71.2378 363.026 70.4485 361.271 69.3856L359.199 72.8071L357.127 76.2286C359.721 77.7993 362.595 78.898 365.711 79.5534L366.534 75.6391ZM359.199 72.8071L361.271 69.3856C359.614 68.3822 358.216 67.0453 357.065 65.3258L353.741 67.551L350.417 69.7762C352.194 72.4312 354.435 74.5984 357.127 76.2286L359.199 72.8071ZM353.741 67.551L357.084 65.3553C356.012 63.7231 355.347 61.8668 355.114 59.7177L351.137 60.1489L347.16 60.58C347.522 63.9198 348.592 66.9983 350.397 69.7467L353.741 67.551ZM351.137 60.1489L351.606 64.1213L364.795 62.5653L364.327 58.5928L363.858 54.6204L350.668 56.1764L351.137 60.1489ZM364.327 58.5928L360.52 59.8218C361.386 62.5041 362.972 64.7605 365.37 66.2781L367.509 62.898L369.648 59.5179C369.043 59.1348 368.507 58.521 368.133 57.3638L364.327 58.5928ZM367.509 62.898L365.401 66.2975C367.827 67.8015 370.581 68.2547 373.412 67.9207L372.943 63.9483L372.474 59.9758C371.116 60.1361 370.247 59.8891 369.617 59.4985L367.509 62.898ZM372.943 63.9483L373.412 67.9207C376.661 67.5375 379.528 66.1632 381.569 63.5761L378.428 61.0985L375.288 58.621C374.774 59.2722 373.984 59.7977 372.474 59.9758L372.943 63.9483ZM378.428 61.0985L381.569 63.5761C383.62 60.9754 384.316 57.8599 383.93 54.5888L379.958 55.0574L375.985 55.5261C376.161 57.0137 375.837 57.9255 375.288 58.621L378.428 61.0985ZM379.958 55.0574L383.93 54.5888C383.537 51.2574 382.047 48.3648 379.271 46.402L376.962 49.6682L374.653 52.9344C375.309 53.3985 375.817 54.0988 375.985 55.5261L379.958 55.0574ZM376.962 49.6682L379.298 46.4214C376.623 44.4962 373.448 43.931 370.155 44.3194L370.624 48.2919L371.093 52.2643C372.869 52.0547 373.92 52.407 374.625 52.915L376.962 49.6682ZM370.624 48.2919L370.155 44.3194C365.649 44.8511 361.916 46.9776 359.902 51.0616L363.49 52.8309L367.077 54.6002C367.644 53.4498 368.668 52.5503 371.093 52.2643L370.624 48.2919ZM363.49 52.8309L363.021 48.8584L351.189 50.2543L351.658 54.2268L352.126 58.1992L363.958 56.8033L363.49 52.8309ZM351.658 54.2268L355.656 54.3362L356.597 19.9658L352.598 19.8564L348.6 19.747L347.659 54.1173L351.658 54.2268ZM352.598 19.8564L353.067 23.8289L387.244 19.7969L386.775 15.8244L386.307 11.852L352.129 15.884L352.598 19.8564ZM386.775 15.8244L382.803 16.2931L384.231 28.3966L388.203 27.928L392.176 27.4593L390.748 15.3558L386.775 15.8244ZM388.203 27.928L387.734 23.9555L363.954 26.761L364.423 30.7334L364.891 34.7059L388.672 31.9004L388.203 27.928ZM364.423 30.7334L360.429 30.5005L359.792 41.4317L363.785 41.6647L367.778 41.8977L368.416 30.9664L364.423 30.7334ZM363.785 41.6647L366.754 44.3457C367.494 43.5257 368.462 42.7875 369.725 42.1597L367.944 38.578L366.163 34.9963C364.107 36.0188 362.302 37.3383 360.816 38.9837L363.785 41.6647ZM367.944 38.578L369.708 42.168C370.981 41.5423 372.33 41.1444 373.773 40.9741L373.304 37.0017L372.836 33.0292C370.503 33.3044 368.278 33.9573 366.18 34.988L367.944 38.578ZM373.304 37.0017L373.773 40.9741C378.316 40.4381 381.892 41.4309 384.831 43.7319L387.297 40.5823L389.762 37.4327C384.959 33.672 379.206 32.2776 372.836 33.0292L373.304 37.0017ZM387.297 40.5823L384.831 43.7319C387.752 46.0189 389.564 49.262 390.106 53.8602L394.078 53.3915L398.051 52.9229C397.294 46.5037 394.584 41.2073 389.762 37.4327L387.297 40.5823ZM394.078 53.3915L390.106 53.8602C390.704 58.9317 389.536 62.8679 386.844 66.0519L389.898 68.6347L392.952 71.2176C397.255 66.1292 398.874 59.9032 398.051 52.9229L394.078 53.3915ZM389.898 68.6347L386.844 66.0511C384.161 69.2224 380.185 71.2989 374.441 71.9765L374.91 75.949L375.378 79.9214C382.669 79.0613 388.685 76.2616 392.952 71.2183L389.898 68.6347Z" fill="black" mask="url(#path-3-outside-2_640_314)"/>
</svg>
