<svg width="33" height="109" viewBox="0 0 33 109" fill="none" xmlns="http://www.w3.org/2000/svg">
    <path
        d="M0.77184 107.122C0.794554 107.574 0.995705 107.998 1.33106 108.301C1.66641 108.604 2.1085 108.762 2.56008 108.739L17.8832 107.969C18.3347 107.947 18.7588 107.746 19.062 107.41C19.3653 107.075 19.5229 106.633 19.5002 106.181C19.4776 105.73 19.2764 105.306 18.9411 105.002C18.6058 104.699 18.1637 104.541 17.7122 104.564L4.09148 105.249L3.40732 91.6279C3.3846 91.1764 3.18343 90.7524 2.84807 90.4491C2.68202 90.299 2.48801 90.183 2.27714 90.1078C2.06627 90.0327 1.84266 89.9998 1.61908 90.011C1.39549 90.0223 1.1763 90.0774 0.974041 90.1734C0.771779 90.2694 0.590396 90.4042 0.440251 90.5703C0.137019 90.9056 -0.0205632 91.3477 0.00215578 91.7993L0.77184 107.122ZM20.6193 1.00872C20.5191 0.808487 20.3805 0.629945 20.2114 0.483273C20.0423 0.3366 19.8459 0.224674 19.6336 0.153889C19.2046 0.010931 18.7365 0.0442152 18.3321 0.246426C17.9277 0.448636 17.6202 0.803203 17.4773 1.23213C17.3343 1.66105 17.3676 2.12921 17.5698 2.53359L20.6193 1.00872ZM3.73889 108.18C18.6438 91.6984 28.0876 75.2559 31.1621 57.6805C34.2405 40.0845 30.8976 21.565 20.6193 1.00872L17.5698 2.53359C27.606 22.6058 30.7271 40.3819 27.8038 57.0933C24.8765 73.8253 15.8529 89.701 1.21023 105.893L3.73889 108.18Z"
        fill="#5D5D6D" fill-opacity="0.67" />
</svg>