<svg width="38" height="37" viewBox="0 0 38 37" fill="none" xmlns="http://www.w3.org/2000/svg">
    <circle cx="19" cy="18.5" r="18.5" fill="#CFBDBD" fill-opacity="0.3" />
    <path
        d="M19.7148 7.20652C21.0079 7.37779 22.0441 7.69466 23.5685 8.38833C23.8768 8.52535 24.1679 8.64524 24.2108 8.64524C24.2621 8.64524 24.4677 8.52535 24.6818 8.37976C25.4439 7.84024 26.3517 7.63471 27.8504 7.64327C29.1692 7.65184 30.488 7.99439 30.8734 8.43115C31.0361 8.61099 31.0361 8.61099 30.6593 8.69663C29.6402 8.95354 28.6553 9.65578 28.1929 10.4608C27.5335 11.6169 27.4821 12.6017 27.9788 14.7855C28.1073 15.385 28.1758 17.2091 28.0816 17.7829C27.7733 19.6583 27.0882 21.4225 26.0177 23.0924C25.7351 23.5377 25.4782 23.9231 25.4525 23.9488C25.4268 23.9745 25.2127 24.24 24.9815 24.5483C24.0994 25.7044 22.4809 27.1688 21.0422 28.1023C19.9289 28.8302 18.1733 29.6523 17.4025 29.815C17.1285 29.8664 17.1542 29.8407 17.7023 29.4468C18.7214 28.736 19.7747 27.5713 20.4084 26.4751C21.0336 25.379 21.6844 23.7347 21.8985 22.6814C21.9756 22.3217 22.0698 21.8849 22.1126 21.7222C22.3867 20.6089 22.3182 17.5259 22.0013 17.2176C21.9756 17.1919 21.6331 17.4232 21.2477 17.7229C19.4835 19.076 14.6707 21.6623 9.86643 23.8204C9.42111 24.0259 8.7874 24.3085 8.45341 24.4626C7.6998 24.8052 7.40006 24.9251 7.51139 24.8223C7.56278 24.7795 8.25644 24.2485 9.05287 23.6319C9.85787 23.0154 11.3394 21.8507 12.3499 21.0371C13.3604 20.2235 14.5851 19.2473 15.0646 18.8705C15.5442 18.4851 15.9296 18.1682 15.921 18.1511C15.9125 18.1425 15.4586 18.3566 14.9191 18.6221C13.3091 19.4185 10.2946 20.4719 7.92245 21.0714C7.44288 21.1913 7.02326 21.294 6.989 21.294C6.95475 21.294 7.44288 21.0285 8.0766 20.7117C10.7485 19.3586 15.0475 16.2927 18.2332 13.4667C18.6614 13.0899 19.0211 12.7473 19.0211 12.7131C19.0382 12.5675 16.8459 11.5655 15.7754 11.2315C14.5765 10.8547 13.9685 10.7519 12.9066 10.7519C11.7162 10.7519 11.014 10.8633 8.84734 11.4028C7.9824 11.6169 7.26304 11.7796 7.24592 11.7625C7.17741 11.694 9.39542 10.1268 10.4231 9.51019C12.5983 8.20849 14.4994 7.51482 16.6746 7.20652C17.4282 7.10375 18.944 7.10375 19.7148 7.20652Z"
        fill="black" />
</svg>