<svg width="37" height="37" viewBox="0 0 37 37" fill="none" xmlns="http://www.w3.org/2000/svg">
<ellipse cx="18.4159" cy="18.5" rx="18.4159" ry="18.5" fill="#4E4D5B"/>
<path d="M12.248 10.4029C13.1433 11.1306 14.7879 11.785 16.1308 11.785C17.2394 11.785 17.8848 11.5076 18.5145 11.1568C16.3129 9.37158 14.6474 7.47641 13.3306 5.55507C14.7047 6.79059 16.1828 7.91618 17.765 8.92658C16.5888 7.61253 15.527 6.3613 14.6318 4.97395C15.7456 6.1676 18.5405 8.50776 19.9979 9.35588C20.1332 9.02605 20.2945 8.36118 20.2945 7.74865C20.2945 6.07336 19.5451 4.86925 18.9882 4.07349C21.6738 5.69642 22.4857 8.21982 22.4857 9.66476C22.4857 9.98935 22.4649 10.5286 22.2931 11.0207C23.0843 12.0206 23.23 12.9316 23.23 13.408C23.23 13.5807 23.204 13.7169 23.1779 13.8268C23.1363 13.9682 23.0686 13.921 23.0322 13.8425C22.8917 13.6069 22.5326 12.9944 21.6321 12.9944C20.5548 12.9944 20.0395 13.8687 18.1762 13.8687C15.2512 13.8687 13.0808 11.7693 12.248 10.4029Z" fill="white"/>
<mask id="mask0_368_494" style="mask-type:alpha" maskUnits="userSpaceOnUse" x="0" y="0" width="37" height="37">
<ellipse cx="18.5839" cy="18.5" rx="18.4159" ry="18.5" fill="white"/>
</mask>
<g mask="url(#mask0_368_494)">
<mask id="mask1_368_494" style="mask-type:alpha" maskUnits="userSpaceOnUse" x="-1" y="4" width="39" height="39">
<ellipse cx="18.4164" cy="23.2534" rx="18.8383" ry="19.1801" fill="white"/>
</mask>
<g mask="url(#mask1_368_494)">
</g>
<path d="M11.8273 30.9559V29.9003H11.556H11.5508C11.5508 29.9003 11.5508 29.4677 11.5508 29.3223C11.5508 29.211 11.7386 29.1023 11.8273 29.0575V28.1127H11.556H11.5508C11.5508 28.1127 11.5508 27.6798 11.5508 27.5347C11.5508 27.4235 11.7386 27.3147 11.8273 27.2696V26.6038H11.076V22.2204H11.5508V21.2803H11.2813C11.2813 21.2803 11.2813 20.9127 11.2813 20.7894C11.2813 20.6685 11.5375 20.5534 11.5508 20.547V19.8073H10.9115V16.572H11.2708V15.597H11.0425C11.0425 15.597 11.0425 15.286 11.0425 15.1811C11.0425 15.0791 11.2603 14.9814 11.2708 14.9764V14.5513H10.8459V12.5167C10.9227 12.3873 11.3996 11.4937 10.458 10.7309L10.4004 10.6939C10.1976 10.5653 9.77657 10.2969 9.77657 9.99051V8.75391H9.66311V9.99051C9.66311 10.3033 9.21939 10.582 9.03017 10.7011L8.97815 10.7348C8.04078 11.4948 8.52116 12.3877 8.59867 12.5174V14.552H8.17065V14.9782C8.1717 14.9782 8.17624 14.9757 8.17624 14.9757L8.17694 14.9753C8.17694 14.9753 8.4084 15.077 8.4084 15.1818C8.4084 15.2867 8.4084 15.5977 8.4084 15.5977H8.17694H8.17624H8.17065V16.5727H8.52954V19.808H7.88997V20.5491C7.89102 20.5491 7.89695 20.5459 7.89695 20.5459C7.89695 20.5459 8.17065 20.6661 8.17065 20.7901C8.17065 20.9134 8.17065 21.281 8.17065 21.281H7.89695H7.8966H7.88962V22.2211H8.31379V26.547H7.5625V27.2483C7.5625 27.2483 7.56634 27.25 7.56774 27.2507V27.2483C7.56774 27.2483 7.88997 27.3897 7.88997 27.5358C7.88997 27.6808 7.88997 28.1138 7.88997 28.1138H7.88473H7.56774H7.5625V29.0369C7.5625 29.0369 7.56634 29.0383 7.56774 29.039V29.0369C7.56774 29.0369 7.88997 29.178 7.88997 29.3241C7.88997 29.4695 7.88997 29.902 7.88997 29.902H7.88473H7.56774H7.5625V31.0153H7.61906C7.96991 31.0153 8.12457 31.4002 8.14691 31.4614V40.7443H11.2425L11.246 31.4386C11.2645 31.3896 11.4335 30.9559 11.8273 30.9559ZM10.2681 13.7252C10.2681 13.6204 10.4999 13.5187 10.4999 13.5187C10.4999 13.5187 10.7317 13.6204 10.7317 13.7252C10.7317 13.8301 10.7317 14.343 10.7317 14.343H10.2681C10.2681 14.3433 10.2681 13.8301 10.2681 13.7252ZM9.49344 13.7252C9.49344 13.6204 9.72491 13.5187 9.72491 13.5187C9.72491 13.5187 9.95741 13.6204 9.95741 13.7252C9.95741 13.8301 9.95741 14.343 9.95741 14.343H9.49344C9.49344 14.3433 9.49344 13.8301 9.49344 13.7252ZM9.49344 15.1815C9.49344 15.0766 9.72491 14.975 9.72491 14.975C9.72491 14.975 9.95741 15.0766 9.95741 15.1815C9.95741 15.2863 9.95741 15.5974 9.95741 15.5974H9.72491H9.49344C9.49344 15.5974 9.49344 15.2863 9.49344 15.1815ZM9.4519 20.7894C9.4519 20.6653 9.72525 20.5452 9.72525 20.5452C9.72525 20.5452 9.99966 20.6653 9.99966 20.7894C9.99966 20.9127 9.99966 21.2803 9.99966 21.2803H9.72525H9.4519C9.4519 21.2803 9.4519 20.9127 9.4519 20.7894ZM8.96628 29.9003H8.64405H8.32182C8.32182 29.9003 8.32182 29.4677 8.32182 29.3223C8.32182 29.1769 8.64405 29.0351 8.64405 29.0351C8.64405 29.0351 8.96628 29.1762 8.96628 29.3223C8.96628 29.4677 8.96628 29.9003 8.96628 29.9003ZM8.96628 28.1127H8.64405H8.32182C8.32182 28.1127 8.32182 27.6798 8.32182 27.5347C8.32182 27.3894 8.64405 27.2468 8.64405 27.2468C8.64405 27.2468 8.96628 27.3887 8.96628 27.5347C8.96628 27.6798 8.96628 28.1127 8.96628 28.1127ZM9.08463 21.2803H8.81128H8.53722C8.53722 21.2803 8.53722 20.9127 8.53722 20.7894C8.53722 20.6653 8.81128 20.5452 8.81128 20.5452C8.81128 20.5452 9.08463 20.6653 9.08463 20.7894C9.08463 20.9127 9.08463 21.2803 9.08463 21.2803ZM9.18203 15.5974H8.95092H8.71876C8.71876 15.5974 8.71876 15.2863 8.71876 15.1815C8.71876 15.0766 8.95092 14.975 8.95092 14.975C8.95092 14.975 9.18203 15.0766 9.18203 15.1815C9.18203 15.2863 9.18203 15.5974 9.18203 15.5974ZM9.18203 14.3433H8.71876C8.71876 14.3433 8.71876 13.8304 8.71876 13.7256C8.71876 13.6207 8.95092 13.5191 8.95092 13.5191C8.95092 13.5191 9.18203 13.6207 9.18203 13.7256C9.18203 13.8304 9.18203 14.3433 9.18203 14.3433ZM10.0426 29.9003H9.72037H9.39814C9.39814 29.9003 9.39814 29.4677 9.39814 29.3223C9.39814 29.1769 9.72037 29.0351 9.72037 29.0351C9.72037 29.0351 10.0426 29.1762 10.0426 29.3223C10.0426 29.4677 10.0426 29.9003 10.0426 29.9003ZM10.0426 28.1127H9.72037H9.39814C9.39814 28.1127 9.39814 27.6798 9.39814 27.5347C9.39814 27.3894 9.72037 27.2468 9.72037 27.2468C9.72037 27.2468 10.0426 27.3887 10.0426 27.5347C10.0426 27.6798 10.0426 28.1127 10.0426 28.1127ZM10.2681 15.1815C10.2681 15.0766 10.4999 14.975 10.4999 14.975C10.4999 14.975 10.7317 15.0766 10.7317 15.1815C10.7317 15.2863 10.7317 15.5974 10.7317 15.5974H10.4999H10.2681C10.2681 15.5974 10.2681 15.2863 10.2681 15.1815ZM10.3666 20.7894C10.3666 20.6653 10.6399 20.5452 10.6399 20.5452C10.6399 20.5452 10.914 20.6653 10.914 20.7894C10.914 20.9127 10.914 21.2803 10.914 21.2803H10.6399H10.3666C10.3666 21.2803 10.3666 20.9127 10.3666 20.7894ZM11.1189 29.9003H10.7967H10.4745C10.4745 29.9003 10.4745 29.4677 10.4745 29.3223C10.4745 29.1769 10.7967 29.0351 10.7967 29.0351C10.7967 29.0351 11.1189 29.1762 11.1189 29.3223C11.1189 29.4677 11.1189 29.9003 11.1189 29.9003ZM11.1189 28.1127H10.7967H10.4745C10.4745 28.1127 10.4745 27.6798 10.4745 27.5347C10.4745 27.3894 10.7967 27.2468 10.7967 27.2468C10.7967 27.2468 11.1189 27.3887 11.1189 27.5347C11.1189 27.6798 11.1189 28.1127 11.1189 28.1127Z" fill="#CAC9CE"/>
<path d="M14.2097 23.3948V20.7503H14.5047V19.953H14.3179C14.3179 19.953 14.3179 19.6985 14.3179 19.6128C14.3179 19.5293 14.496 19.4493 14.5047 19.4451V19.0974H14.1566V17.4339C14.2198 17.328 14.6091 16.5976 13.84 15.9738L13.7922 15.9435C13.6263 15.8383 13.2821 15.619 13.2821 15.3684V14.3572H13.1892V15.3684C13.1892 15.624 12.8262 15.8518 12.6715 15.9492L12.6293 15.9766C11.8626 16.5979 12.2557 17.3284 12.3193 17.4343V19.0978H11.9688V19.4461C11.9694 19.4461 11.9733 19.4444 11.9733 19.4444L11.974 19.444C11.974 19.444 12.1636 19.5268 12.1636 19.6128C12.1636 19.6989 12.1636 19.953 12.1636 19.953H11.974H11.9733H11.9688V20.7503H12.2627V23.3948M13.6839 18.4221C13.6839 18.3364 13.8735 18.2532 13.8735 18.2532C13.8735 18.2532 14.0627 18.3361 14.0627 18.4221C14.0627 18.5074 14.0627 18.9272 14.0627 18.9272H13.6839C13.6839 18.9272 13.6839 18.5074 13.6839 18.4221ZM13.0503 18.4221C13.0503 18.3364 13.2406 18.2532 13.2406 18.2532C13.2406 18.2532 13.4301 18.3361 13.4301 18.4221C13.4301 18.5074 13.4301 18.9272 13.4301 18.9272H13.0503C13.0503 18.9272 13.0503 18.5074 13.0503 18.4221ZM13.0503 19.6128C13.0503 19.5272 13.2406 19.444 13.2406 19.444C13.2406 19.444 13.4301 19.5268 13.4301 19.6128C13.4301 19.6989 13.4301 19.953 13.4301 19.953H13.2406H13.0503C13.0503 19.953 13.0503 19.6985 13.0503 19.6128ZM12.7961 19.953H12.6069H12.4174C12.4174 19.953 12.4174 19.6985 12.4174 19.6128C12.4174 19.5272 12.6069 19.444 12.6069 19.444C12.6069 19.444 12.7961 19.5268 12.7961 19.6128C12.7961 19.6989 12.7961 19.953 12.7961 19.953ZM12.7961 18.9272H12.4174C12.4174 18.9272 12.4174 18.5074 12.4174 18.4221C12.4174 18.3364 12.6069 18.2532 12.6069 18.2532C12.6069 18.2532 12.7961 18.3361 12.7961 18.4221C12.7961 18.5074 12.7961 18.9272 12.7961 18.9272ZM13.6839 19.6128C13.6839 19.5272 13.8735 19.444 13.8735 19.444C13.8735 19.444 14.0627 19.5268 14.0627 19.6128C14.0627 19.6989 14.0627 19.953 14.0627 19.953H13.8735H13.6839C13.6839 19.953 13.6839 19.6985 13.6839 19.6128Z" fill="#CAC9CE"/>
<path d="M25.5864 31.4386L25.5903 40.7443H28.6859V31.4596C28.7075 31.3985 28.8629 31.0135 29.2137 31.0135H29.2703V29.9003H29.265H28.948H28.9428C28.9428 29.9003 28.9428 29.4677 28.9428 29.3223C28.9428 29.1769 29.265 29.0351 29.265 29.0351V29.0372C29.2664 29.0365 29.2703 29.0351 29.2703 29.0351V28.112H29.265H28.948H28.9428C28.9428 28.112 28.9428 27.6791 28.9428 27.534C28.9428 27.3887 29.265 27.2465 29.265 27.2465V27.249C29.2664 27.2483 29.2703 27.2465 29.2703 27.2465V26.5452H28.519V22.2197H28.9432V21.2796H28.9362H28.6628C28.6628 21.2796 28.6628 20.912 28.6628 20.7887C28.6628 20.6646 28.9358 20.5445 28.9358 20.5445C28.9358 20.5445 28.9425 20.5477 28.9432 20.5477V19.8066H28.3036V16.5713H28.6628V15.5963H28.6569H28.6562H28.4247C28.4247 15.5963 28.4247 15.2853 28.4247 15.1804C28.4247 15.0756 28.6562 14.9739 28.6562 14.9739L28.6565 14.9743L28.6569 14.9739C28.6569 14.9739 28.6614 14.9767 28.6628 14.9767V14.5506H28.2345V12.516C28.312 12.3866 28.7923 11.4933 27.855 10.7334L27.803 10.6996C27.6137 10.5806 27.1704 10.3019 27.1704 9.98909V8.75391H27.0569V9.99051C27.0569 10.2969 26.6359 10.5653 26.433 10.6939L26.3754 10.7309C25.4339 11.4937 25.9108 12.3873 25.9876 12.5167V14.5513H25.5627V14.9764C25.5732 14.9814 25.791 15.0791 25.791 15.1811C25.791 15.286 25.791 15.597 25.791 15.597H25.5627V16.572H25.9219V19.8073H25.2827V20.547C25.296 20.5534 25.5522 20.6685 25.5522 20.7894C25.5522 20.9127 25.5522 21.2803 25.5522 21.2803H25.2827V22.2204H25.7575V26.6038H25.0062V27.2696C25.0949 27.3147 25.2827 27.4235 25.2827 27.5347C25.2827 27.6798 25.2827 28.1127 25.2827 28.1127H25.2771H25.0059V29.0575C25.0945 29.1023 25.2824 29.211 25.2824 29.3223C25.2824 29.4677 25.2824 29.9003 25.2824 29.9003H25.2771H25.0059V30.9559C25.3993 30.9559 25.5683 31.3896 25.5864 31.4386ZM26.5646 14.3433H26.101C26.101 14.3433 26.101 13.8304 26.101 13.7256C26.101 13.6207 26.3328 13.5191 26.3328 13.5191C26.3328 13.5191 26.5646 13.6207 26.5646 13.7256C26.5646 13.8304 26.5646 14.3433 26.5646 14.3433ZM27.3393 14.3433H26.8757C26.8757 14.3433 26.8757 13.8304 26.8757 13.7256C26.8757 13.6207 27.1082 13.5191 27.1082 13.5191C27.1082 13.5191 27.3393 13.6207 27.3393 13.7256C27.3393 13.8304 27.3393 14.3433 27.3393 14.3433ZM27.3393 15.5974H27.1082H26.8757C26.8757 15.5974 26.8757 15.2863 26.8757 15.1815C26.8757 15.0766 27.1082 14.975 27.1082 14.975C27.1082 14.975 27.3393 15.0766 27.3393 15.1815C27.3393 15.2863 27.3393 15.5974 27.3393 15.5974ZM27.3809 21.2803H27.1075H26.8335C26.8335 21.2803 26.8335 20.9127 26.8335 20.7894C26.8335 20.6653 27.1075 20.5452 27.1075 20.5452C27.1075 20.5452 27.3809 20.6653 27.3809 20.7894C27.3809 20.9127 27.3809 21.2803 27.3809 21.2803ZM27.8661 29.3223C27.8661 29.1769 28.1887 29.0351 28.1887 29.0351C28.1887 29.0351 28.511 29.1762 28.511 29.3223C28.511 29.4677 28.511 29.9003 28.511 29.9003H28.1887H27.8661C27.8661 29.9003 27.8661 29.4677 27.8661 29.3223ZM27.8661 27.5347C27.8661 27.3894 28.1887 27.2468 28.1887 27.2468C28.1887 27.2468 28.511 27.3887 28.511 27.5347C28.511 27.6798 28.511 28.1127 28.511 28.1127H28.1887H27.8661C27.8661 28.1127 27.8661 27.6798 27.8661 27.5347ZM27.7485 20.7894C27.7485 20.6653 28.0218 20.5452 28.0218 20.5452C28.0218 20.5452 28.2955 20.6653 28.2955 20.7894C28.2955 20.9127 28.2955 21.2803 28.2955 21.2803H28.0218H27.7485C27.7485 21.2803 27.7485 20.9127 27.7485 20.7894ZM27.6507 15.1815C27.6507 15.0766 27.8819 14.975 27.8819 14.975C27.8819 14.975 28.1137 15.0766 28.1137 15.1815C28.1137 15.2863 28.1137 15.5974 28.1137 15.5974H27.8819H27.6507C27.6507 15.5974 27.6507 15.2863 27.6507 15.1815ZM27.6507 13.7252C27.6507 13.6204 27.8819 13.5187 27.8819 13.5187C27.8819 13.5187 28.1137 13.6204 28.1137 13.7252C28.1137 13.8301 28.1137 14.343 28.1137 14.343H27.6507C27.6507 14.3433 27.6507 13.8301 27.6507 13.7252ZM26.7902 29.3223C26.7902 29.1769 27.1124 29.0351 27.1124 29.0351C27.1124 29.0351 27.4346 29.1762 27.4346 29.3223C27.4346 29.4677 27.4346 29.9003 27.4346 29.9003H27.1124H26.7902C26.7902 29.9003 26.7902 29.4677 26.7902 29.3223ZM26.7902 27.5347C26.7902 27.3894 27.1124 27.2468 27.1124 27.2468C27.1124 27.2468 27.4346 27.3887 27.4346 27.5347C27.4346 27.6798 27.4346 28.1127 27.4346 28.1127H27.1124H26.7902C26.7902 28.1127 26.7902 27.6798 26.7902 27.5347ZM26.5646 15.5974H26.3328H26.101C26.101 15.5974 26.101 15.2863 26.101 15.1815C26.101 15.0766 26.3328 14.975 26.3328 14.975C26.3328 14.975 26.5646 15.0766 26.5646 15.1815C26.5646 15.2863 26.5646 15.5974 26.5646 15.5974ZM26.4665 21.2803H26.1932H25.9191C25.9191 21.2803 25.9191 20.9127 25.9191 20.7894C25.9191 20.6653 26.1932 20.5452 26.1932 20.5452C26.1932 20.5452 26.4665 20.6653 26.4665 20.7894C26.4665 20.9127 26.4665 21.2803 26.4665 21.2803ZM25.7135 29.3223C25.7135 29.1769 26.0361 29.0351 26.0361 29.0351C26.0361 29.0351 26.3583 29.1762 26.3583 29.3223C26.3583 29.4677 26.3583 29.9003 26.3583 29.9003H26.0361H25.7135C25.7135 29.9003 25.7135 29.4677 25.7135 29.3223ZM25.7135 27.5347C25.7135 27.3894 26.0361 27.2468 26.0361 27.2468C26.0361 27.2468 26.3583 27.3887 26.3583 27.5347C26.3583 27.6798 26.3583 28.1127 26.3583 28.1127H26.0361H25.7135C25.7135 28.1127 25.7135 27.6798 25.7135 27.5347Z" fill="#CAC9CE"/>
<path d="M25.6427 26.489V23.5857H18.4161H11.1895V26.489H11.8786C11.8786 26.4414 11.8786 26.0561 11.8786 25.9199C11.8786 25.7742 12.2008 25.632 12.2008 25.632C12.2008 25.632 12.5231 25.7735 12.5231 25.9199C12.5231 26.0649 12.5231 26.4975 12.5231 26.4975H11.9411V31.0711H11.828C11.5274 31.0711 11.3843 31.3995 11.3563 31.4695V40.7443H14.5919V36.7785C14.5919 34.8747 16.4649 34.1073 17.2644 33.7803C17.3356 33.7508 17.3981 33.7252 17.4487 33.7032C18.0534 33.4366 18.3766 33.2226 18.3906 33.2137L18.4161 33.1974L18.4416 33.2148C18.4555 33.2233 18.7788 33.4377 19.3835 33.7035C19.4345 33.7256 19.4966 33.7515 19.5675 33.781C20.3669 34.108 22.2399 34.8747 22.2399 36.7792V40.7443H25.4758V31.4695C25.4479 31.3995 25.3048 31.0711 25.0038 31.0711H24.8907V26.4975H24.3091C24.3091 26.4975 24.3091 26.0649 24.3091 25.9199C24.3091 25.7742 24.6313 25.632 24.6313 25.632C24.6313 25.632 24.9539 25.7735 24.9539 25.9199C24.9539 26.0561 24.9539 26.4414 24.9539 26.489H25.6427ZM23.2733 23.8519H23.9178V24.6236H23.2733V23.8519ZM21.2017 23.8519H21.8465V24.6236H21.2017V23.8519ZM19.1293 23.8519H19.7738V24.6236H19.1293V23.8519ZM18.0939 23.8519H18.4161H18.7383V24.6236H18.4161H18.0939V23.8519ZM18.0939 25.9199C18.0939 25.7742 18.4161 25.632 18.4161 25.632C18.4161 25.632 18.7383 25.7735 18.7383 25.9199C18.7383 26.0649 18.7383 26.4975 18.7383 26.4975H18.4161H18.0939C18.0939 26.4975 18.0939 26.0649 18.0939 25.9199ZM16.0222 23.8519H16.6667V24.6236H16.0222V23.8519ZM13.9502 23.8519H14.5947V24.6236H13.9502V23.8519ZM11.8783 24.6232V23.8516H12.5227V24.6232H11.8783ZM13.282 40.301H12.8715H12.4606C12.4606 40.301 12.4606 39.4387 12.4606 39.2759C12.4606 39.1138 12.8715 38.9556 12.8715 38.9556C12.8715 38.9556 13.282 39.1138 13.282 39.2759C13.282 39.4387 13.282 40.301 13.282 40.301ZM13.282 37.6099H12.8715H12.4606C12.4606 37.6099 12.4606 36.7469 12.4606 36.5848C12.4606 36.4224 12.8715 36.2645 12.8715 36.2645C12.8715 36.2645 13.282 36.4224 13.282 36.5848C13.282 36.7469 13.282 37.6099 13.282 37.6099ZM13.282 35.0862H12.8715H12.4606C12.4606 35.0862 12.4606 34.6032 12.4606 34.4414C12.4606 34.279 12.8715 34.1208 12.8715 34.1208C12.8715 34.1208 13.282 34.279 13.282 34.4414C13.282 34.6032 13.282 35.0862 13.282 35.0862ZM13.282 32.9429H12.8715H12.4606C12.4606 32.9429 12.4606 32.4602 12.4606 32.2977C12.4606 32.1353 12.8715 31.9775 12.8715 31.9775C12.8715 31.9775 13.282 32.1353 13.282 32.2977C13.282 32.4602 13.282 32.9429 13.282 32.9429ZM13.488 30.2322H12.3834C12.3834 30.2322 12.3834 29.3742 12.3834 29.0855C12.3834 28.7969 12.9357 28.5158 12.9357 28.5158C12.9357 28.5158 13.488 28.7969 13.488 29.0855C13.488 29.3742 13.488 30.2322 13.488 30.2322ZM13.5589 26.4975H12.9144C12.9144 26.4975 12.9144 26.0649 12.9144 25.9199C12.9144 25.7742 13.236 25.632 13.236 25.632C13.236 25.632 13.5589 25.7735 13.5589 25.9199C13.5589 26.0649 13.5589 26.4975 13.5589 26.4975ZM13.5589 24.6232H12.9144V23.8516H13.5589V24.6232ZM13.9502 25.9196C13.9502 25.7745 14.2725 25.632 14.2725 25.632C14.2725 25.632 14.5947 25.7738 14.5947 25.9196C14.5947 26.0653 14.5947 26.4975 14.5947 26.4975H13.9502C13.9502 26.4975 13.9502 26.0649 13.9502 25.9196ZM15.3146 30.2322H14.21C14.21 30.2322 14.21 29.3742 14.21 29.0855C14.21 28.7969 14.7623 28.5158 14.7623 28.5158C14.7623 28.5158 15.3146 28.7969 15.3146 29.0855C15.3146 29.3742 15.3146 30.2322 15.3146 30.2322ZM15.6305 26.4975H14.9861C14.9861 26.4975 14.9861 26.0649 14.9861 25.9196C14.9861 25.7742 15.3083 25.632 15.3083 25.632C15.3083 25.632 15.6305 25.7735 15.6305 25.9196C15.6305 26.0657 15.6305 26.4975 15.6305 26.4975ZM15.6305 24.6232H14.9861V23.8516H15.6305V24.6232ZM16.0222 25.9196C16.0222 25.7745 16.3448 25.632 16.3448 25.632C16.3448 25.632 16.6667 25.7738 16.6667 25.9196C16.6667 26.0653 16.6667 26.4975 16.6667 26.4975H16.0222C16.0222 26.4975 16.0222 26.0649 16.0222 25.9196ZM17.1418 30.2322H16.0372C16.0372 30.2322 16.0372 29.3742 16.0372 29.0855C16.0372 28.7969 16.5895 28.5158 16.5895 28.5158C16.5895 28.5158 17.1418 28.7976 17.1418 29.0855C17.1418 29.3742 17.1418 30.2322 17.1418 30.2322ZM17.7029 26.4975H17.0584C17.0584 26.4961 17.0584 26.0649 17.0584 25.9199C17.0584 25.7745 17.3799 25.6327 17.3799 25.6327C17.3799 25.6327 17.7029 25.7738 17.7029 25.9199C17.7029 26.0649 17.7029 26.4961 17.7029 26.4975ZM17.7029 24.6232H17.0584V23.8516H17.7029V24.6232ZM18.9684 30.2322H18.4161H17.8638C17.8638 30.2322 17.8638 29.3742 17.8638 29.0855C17.8638 28.7969 18.4161 28.5161 18.4161 28.5161C18.4161 28.5161 18.9684 28.7973 18.9684 29.0859C18.9684 29.3745 18.9684 30.2322 18.9684 30.2322ZM19.1293 26.4975C19.1293 26.4961 19.1293 26.0649 19.1293 25.9199C19.1293 25.7745 19.4523 25.6327 19.4523 25.6327C19.4523 25.6327 19.7738 25.7738 19.7738 25.9199C19.7738 26.0649 19.7738 26.4961 19.7738 26.4975H19.1293ZM20.7949 30.2322H19.6904C19.6904 30.2322 19.6904 29.3742 19.6904 29.0855C19.6904 28.7969 20.2426 28.5158 20.2426 28.5158C20.2426 28.5158 20.7949 28.7969 20.7949 29.0855C20.7949 29.3742 20.7949 30.2322 20.7949 30.2322ZM20.81 26.4975H20.1655C20.1655 26.4975 20.1655 26.0649 20.1655 25.9196C20.1655 25.7745 20.4874 25.632 20.4874 25.632C20.4874 25.632 20.81 25.7738 20.81 25.9196C20.81 26.0653 20.81 26.4975 20.81 26.4975ZM20.81 24.6232H20.1655V23.8516H20.81V24.6232ZM21.2017 26.4975C21.2017 26.4975 21.2017 26.0649 21.2017 25.9196C21.2017 25.7742 21.5242 25.632 21.5242 25.632C21.5242 25.632 21.8465 25.7735 21.8465 25.9196C21.8465 26.0657 21.8465 26.4975 21.8465 26.4975H21.2017ZM22.6222 30.2322H21.5176C21.5176 30.2322 21.5176 29.3742 21.5176 29.0855C21.5176 28.7969 22.0699 28.5158 22.0699 28.5158C22.0699 28.5158 22.6222 28.7969 22.6222 29.0855C22.6222 29.3742 22.6222 30.2322 22.6222 30.2322ZM22.8816 26.4975H22.2371C22.2371 26.4975 22.2371 26.0649 22.2371 25.9196C22.2371 25.7745 22.5597 25.632 22.5597 25.632C22.5597 25.632 22.8816 25.7738 22.8816 25.9196C22.8816 26.0653 22.8816 26.4975 22.8816 26.4975ZM22.8816 24.6232H22.2371V23.8516H22.8816V24.6232ZM23.2733 25.9199C23.2733 25.7742 23.5962 25.632 23.5962 25.632C23.5962 25.632 23.9178 25.7735 23.9178 25.9199C23.9178 26.0649 23.9178 26.4975 23.9178 26.4975H23.2733C23.2733 26.4975 23.2733 26.0649 23.2733 25.9199ZM24.3716 40.301H23.9607H23.5501C23.5501 40.301 23.5501 39.4387 23.5501 39.2759C23.5501 39.1138 23.9607 38.9556 23.9607 38.9556C23.9607 38.9556 24.3716 39.1138 24.3716 39.2759C24.3716 39.4387 24.3716 40.301 24.3716 40.301ZM24.3716 37.6099H23.9607H23.5501C23.5501 37.6099 23.5501 36.7469 23.5501 36.5848C23.5501 36.4224 23.9607 36.2645 23.9607 36.2645C23.9607 36.2645 24.3716 36.4224 24.3716 36.5848C24.3716 36.7469 24.3716 37.6099 24.3716 37.6099ZM24.3716 35.0862H23.9607H23.5501C23.5501 35.0862 23.5501 34.6032 23.5501 34.4414C23.5501 34.279 23.9607 34.1208 23.9607 34.1208C23.9607 34.1208 24.3716 34.279 24.3716 34.4414C24.3716 34.6032 24.3716 35.0862 24.3716 35.0862ZM24.3716 32.9429H23.9607H23.5501C23.5501 32.9429 23.5501 32.4602 23.5501 32.2977C23.5501 32.1353 23.9607 31.9775 23.9607 31.9775C23.9607 31.9775 24.3716 32.1353 24.3716 32.2977C24.3716 32.4602 24.3716 32.9429 24.3716 32.9429ZM24.4484 29.0855C24.4484 29.3742 24.4484 30.2322 24.4484 30.2322H23.3442C23.3442 30.2322 23.3442 29.3742 23.3442 29.0855C23.3442 28.7969 23.8965 28.5158 23.8965 28.5158C23.8965 28.5158 24.4484 28.798 24.4484 29.0855ZM24.3095 24.6232V23.8516H24.9539V24.6232H24.3095Z" fill="#CAC9CE"/>
<path d="M24.5701 23.3948V20.7503H24.8641V19.953H24.8595H24.8588H24.6693C24.6693 19.953 24.6693 19.6985 24.6693 19.6128C24.6693 19.5272 24.8588 19.444 24.8588 19.444H24.8595C24.8595 19.444 24.8634 19.4461 24.8641 19.4461V19.0978H24.5136V17.4343C24.5775 17.3284 24.9709 16.5979 24.2036 15.9766L24.1613 15.9492C24.0067 15.8522 23.6439 15.624 23.6439 15.3684V14.3572H23.5507V15.3684C23.5507 15.619 23.2068 15.8383 23.0407 15.9435L22.9925 15.9738C22.2234 16.5979 22.6127 17.3284 22.6762 17.4339V19.0974H22.3281V19.4451C22.3365 19.4493 22.5146 19.529 22.5146 19.6128C22.5146 19.6985 22.5146 19.953 22.5146 19.953H22.3281V20.7503H22.6231V23.3948M23.1489 18.9272H22.7705C22.7705 18.9272 22.7705 18.5074 22.7705 18.4221C22.7705 18.3364 22.9593 18.2532 22.9593 18.2532C22.9593 18.2532 23.1489 18.3361 23.1489 18.4221C23.1489 18.5074 23.1489 18.9272 23.1489 18.9272ZM23.7825 18.9272H23.4027C23.4027 18.9272 23.4027 18.5074 23.4027 18.4221C23.4027 18.3364 23.5923 18.2532 23.5923 18.2532C23.5923 18.2532 23.7825 18.3361 23.7825 18.4221C23.7825 18.5074 23.7825 18.9272 23.7825 18.9272ZM23.7825 19.953H23.5923H23.4027C23.4027 19.953 23.4027 19.6985 23.4027 19.6128C23.4027 19.5272 23.5923 19.444 23.5923 19.444C23.5923 19.444 23.7825 19.5268 23.7825 19.6128C23.7825 19.6989 23.7825 19.953 23.7825 19.953ZM24.0367 19.6128C24.0367 19.5272 24.2263 19.444 24.2263 19.444C24.2263 19.444 24.4158 19.5268 24.4158 19.6128C24.4158 19.6989 24.4158 19.953 24.4158 19.953H24.2263H24.0367C24.0367 19.953 24.0367 19.6985 24.0367 19.6128ZM24.0367 18.4221C24.0367 18.3364 24.2263 18.2532 24.2263 18.2532C24.2263 18.2532 24.4158 18.3361 24.4158 18.4221C24.4158 18.5074 24.4158 18.9272 24.4158 18.9272H24.0367C24.0367 18.9272 24.0367 18.5074 24.0367 18.4221ZM23.1489 19.953H22.9593H22.7705C22.7705 19.953 22.7705 19.6985 22.7705 19.6128C22.7705 19.5272 22.9593 19.444 22.9593 19.444C22.9593 19.444 23.1489 19.5268 23.1489 19.6128C23.1489 19.6989 23.1489 19.953 23.1489 19.953Z" fill="#CAC9CE"/>
</g>
</svg>
