<svg width="37" height="37" viewBox="0 0 37 37" fill="none" xmlns="http://www.w3.org/2000/svg">
<circle cx="18.5" cy="18.5" r="18.5" fill="white" fill-opacity="0.3"/>
<path d="M19.2148 7.20652C20.5079 7.37779 21.5441 7.69466 23.0685 8.38833C23.3768 8.52535 23.6679 8.64524 23.7108 8.64524C23.7621 8.64524 23.9677 8.52535 24.1818 8.37976C24.9439 7.84024 25.8517 7.63471 27.3504 7.64327C28.6692 7.65184 29.988 7.99439 30.3734 8.43115C30.5361 8.61099 30.5361 8.61099 30.1593 8.69663C29.1402 8.95354 28.1553 9.65578 27.6929 10.4608C27.0335 11.6169 26.9821 12.6017 27.4788 14.7855C27.6073 15.385 27.6758 17.2091 27.5816 17.7829C27.2733 19.6583 26.5882 21.4225 25.5177 23.0924C25.2351 23.5377 24.9782 23.9231 24.9525 23.9488C24.9268 23.9745 24.7127 24.24 24.4815 24.5483C23.5994 25.7044 21.9809 27.1688 20.5422 28.1023C19.4289 28.8302 17.6733 29.6523 16.9025 29.815C16.6285 29.8664 16.6542 29.8407 17.2023 29.4468C18.2214 28.736 19.2747 27.5713 19.9084 26.4751C20.5336 25.379 21.1844 23.7347 21.3985 22.6814C21.4756 22.3217 21.5698 21.8849 21.6126 21.7222C21.8867 20.6089 21.8182 17.5259 21.5013 17.2176C21.4756 17.1919 21.1331 17.4232 20.7477 17.7229C18.9835 19.076 14.1707 21.6623 9.36643 23.8204C8.92111 24.0259 8.2874 24.3085 7.95341 24.4626C7.1998 24.8052 6.90006 24.9251 7.01139 24.8223C7.06278 24.7795 7.75644 24.2485 8.55287 23.6319C9.35787 23.0154 10.8394 21.8507 11.8499 21.0371C12.8604 20.2235 14.0851 19.2473 14.5646 18.8705C15.0442 18.4851 15.4296 18.1682 15.421 18.1511C15.4125 18.1425 14.9586 18.3566 14.4191 18.6221C12.8091 19.4185 9.79462 20.4719 7.42245 21.0714C6.94288 21.1913 6.52326 21.294 6.489 21.294C6.45475 21.294 6.94288 21.0285 7.5766 20.7117C10.2485 19.3586 14.5475 16.2927 17.7332 13.4667C18.1614 13.0899 18.5211 12.7473 18.5211 12.7131C18.5382 12.5675 16.3459 11.5655 15.2754 11.2315C14.0765 10.8547 13.4685 10.7519 12.4066 10.7519C11.2162 10.7519 10.514 10.8633 8.34734 11.4028C7.4824 11.6169 6.76304 11.7796 6.74592 11.7625C6.67741 11.694 8.89542 10.1268 9.92308 9.51019C12.0983 8.20849 13.9994 7.51482 16.1746 7.20652C16.9282 7.10375 18.444 7.10375 19.2148 7.20652Z" fill="white"/>
</svg>
